# Blender v3.0.0 OBJ File: 'mongodb.blend'
# www.blender.org
mtllib mongo.mtl
o Cylinder_Cylinder.002
v -0.065607 1.018891 -0.013860
v 0.052672 1.018891 0.003137
v -0.065809 0.326705 -0.012458
v 0.052470 0.326705 0.004538
v -0.080862 0.425344 0.092300
v 0.037416 0.425344 0.109297
v -0.090166 0.568652 0.157045
v 0.028113 0.568652 0.174041
v -0.090166 0.745789 0.157045
v 0.028113 0.745789 0.174041
v -0.080862 0.889096 0.092300
v 0.037416 0.889096 0.109297
v -0.065607 1.018891 -0.013860
v 0.052672 1.018891 0.003137
v -0.065809 0.326705 -0.012458
v 0.052470 0.326705 0.004538
vt 0.500000 0.500000
vt 0.500000 1.000000
vt 0.400000 1.000000
vt 0.400000 0.500000
vt 0.300000 1.000000
vt 0.300000 0.500000
vt 0.200000 1.000000
vt 0.200000 0.500000
vt 0.100000 1.000000
vt 0.100000 0.500000
vt -0.000000 1.000000
vt -0.000000 0.500000
vt 0.750000 0.490000
vt 0.750000 0.010000
vt 0.608932 0.055836
vt 0.521746 0.175836
vt 0.521746 0.324164
vt 0.608932 0.444164
vt 0.250000 0.010000
vt 0.250000 0.490000
vt 0.108932 0.444164
vt 0.021746 0.324164
vt 0.021746 0.175836
vt 0.108932 0.055836
vt 0.000000 0.000000
vt 0.000000 0.000000
vt 0.000000 0.000000
vt 0.000000 0.000000
vn -0.0970 -0.7315 0.6749
vn -0.1294 -0.4152 0.9005
vn -0.1422 0.0000 0.9898
vn -0.1294 0.4152 0.9005
vn -0.1096 0.6370 0.7630
vn -0.9898 0.0000 -0.1422
vn 0.9898 -0.0000 0.1422
vn -0.1422 0.0020 0.9898
vn 0.1422 -0.0020 -0.9898
usemtl Material.001
s off
f 3/1/1 4/2/1 6/3/1 5/4/1
f 5/4/2 6/3/2 8/5/2 7/6/2
f 7/6/3 8/5/3 10/7/3 9/8/3
f 9/8/4 10/7/4 12/9/4 11/10/4
f 11/10/5 12/9/5 2/11/5 1/12/5
f 1/13/6 3/14/6 5/15/6 7/16/6 9/17/6 11/18/6
f 4/19/7 2/20/7 12/21/7 10/22/7 8/23/7 6/24/7
f 14/25/8 13/26/8 15/27/8 16/28/8
f 1/13/9 2/20/9 4/2/9 3/14/9
o Cylinder.001_Cylinder.003
v -0.065607 1.018891 -0.013860
v 0.052672 1.018891 0.003137
v -0.050755 0.889096 -0.117217
v 0.067524 0.889096 -0.100220
v -0.041451 0.745789 -0.181961
v 0.076828 0.745789 -0.164964
v -0.041451 0.568652 -0.181961
v 0.076828 0.568652 -0.164964
v -0.050755 0.425344 -0.117217
v 0.067524 0.425344 -0.100220
v -0.065809 0.326705 -0.012458
v 0.052470 0.326705 0.004538
vt 1.000000 0.500000
vt 1.000000 1.000000
vt 0.900000 1.000000
vt 0.900000 0.500000
vt 0.800000 1.000000
vt 0.800000 0.500000
vt 0.700000 1.000000
vt 0.700000 0.500000
vt 0.600000 1.000000
vt 0.600000 0.500000
vt 0.500000 1.000000
vt 0.500000 0.500000
vt 0.391068 0.444164
vt 0.250000 0.490000
vt 0.250000 0.010000
vt 0.391068 0.055836
vt 0.478254 0.175836
vt 0.478254 0.324164
vt 0.750000 0.010000
vt 0.750000 0.490000
vt 0.891068 0.444164
vt 0.978254 0.324164
vt 0.978254 0.175836
vt 0.891068 0.055836
vn 0.1108 0.6268 -0.7712
vn 0.1294 0.4152 -0.9005
vn 0.1422 -0.0000 -0.9898
vn 0.1294 -0.4152 -0.9005
vn 0.0970 -0.7315 -0.6749
vn 0.9898 -0.0000 0.1422
vn -0.9898 0.0000 -0.1422
usemtl Material.003
s off
f 17/29/10 18/30/10 20/31/10 19/32/10
f 19/32/11 20/31/11 22/33/11 21/34/11
f 21/34/12 22/33/12 24/35/12 23/36/12
f 23/36/13 24/35/13 26/37/13 25/38/13
f 25/38/14 26/37/14 28/39/14 27/40/14
f 20/41/15 18/42/15 28/43/15 26/44/15 24/45/15 22/46/15
f 27/47/16 17/48/16 19/49/16 21/50/16 23/51/16 25/52/16
o Cylinder.002_Cylinder.005
v -0.013955 0.241427 -0.012056
v -0.025366 0.350496 -0.005114
v -0.009137 0.241427 -0.020402
v -0.014842 0.350496 -0.023342
v 0.000500 0.241427 -0.020402
v 0.006205 0.350496 -0.023342
v 0.005318 0.241427 -0.012056
v 0.016729 0.350496 -0.005114
v 0.000500 0.241427 -0.003711
v 0.006205 0.350496 0.013114
v -0.009137 0.241427 -0.003711
v -0.014842 0.350496 0.013114
vt 1.000000 0.500000
vt 1.000000 1.000000
vt 0.833333 1.000000
vt 0.833333 0.500000
vt 0.666667 1.000000
vt 0.666667 0.500000
vt 0.500000 1.000000
vt 0.500000 0.500000
vt 0.333333 1.000000
vt 0.333333 0.500000
vt 0.457846 0.370000
vt 0.250000 0.490000
vt 0.042154 0.370000
vt 0.042154 0.130000
vt 0.250000 0.010000
vt 0.457846 0.130000
vt 0.166667 1.000000
vt 0.166667 0.500000
vt -0.000000 1.000000
vt -0.000000 0.500000
vt 0.750000 0.490000
vt 0.957846 0.370000
vt 0.957846 0.130000
vt 0.750000 0.010000
vt 0.542154 0.130000
vt 0.542154 0.370000
vn -0.8645 -0.0587 -0.4991
vn 0.0000 -0.0269 -0.9996
vn 0.8645 -0.0587 -0.4991
vn 0.8596 -0.1215 0.4963
vn 0.0000 1.0000 -0.0000
vn 0.0000 -0.1525 0.9883
vn -0.8596 -0.1215 0.4963
vn 0.0000 -1.0000 0.0000
usemtl Material.006
s off
f 29/53/17 30/54/17 32/55/17 31/56/17
f 31/56/18 32/55/18 34/57/18 33/58/18
f 33/58/19 34/57/19 36/59/19 35/60/19
f 35/60/20 36/59/20 38/61/20 37/62/20
f 32/63/21 30/64/21 40/65/21 38/66/21 36/67/21 34/68/21
f 37/62/22 38/61/22 40/69/22 39/70/22
f 39/70/23 40/69/23 30/71/23 29/72/23
f 29/73/24 31/74/24 33/75/24 35/76/24 37/77/24 39/78/24
