# Blender v3.0.0 OBJ File: 'redis.blend'
# www.blender.org
mtllib redis.mtl
o Cube_Cube.005
v -0.237435 0.223700 0.292476
v -0.292476 0.223700 0.237435
v -0.276355 0.223700 0.276355
v -0.292476 0.315610 0.237435
v -0.237435 0.315610 0.292476
v -0.276355 0.315610 0.276355
v -0.292476 0.223700 -0.237435
v -0.237435 0.223700 -0.292476
v -0.276355 0.223700 -0.276355
v -0.237435 0.315610 -0.292476
v -0.292476 0.315610 -0.237435
v -0.276355 0.315610 -0.276355
v 0.292476 0.223700 0.237435
v 0.237435 0.223700 0.292476
v 0.276355 0.223700 0.276355
v 0.237435 0.315610 0.292476
v 0.292476 0.315610 0.237435
v 0.276355 0.315610 0.276355
v 0.237435 0.223700 -0.292476
v 0.292476 0.223700 -0.237435
v 0.276355 0.223700 -0.276355
v 0.292476 0.315610 -0.237435
v 0.237435 0.315610 -0.292476
v 0.276355 0.315610 -0.276355
vt 0.375000 0.773524
vt 0.625000 0.773524
vt 0.625000 0.976476
vt 0.375000 0.976476
vt 0.375000 0.523524
vt 0.625000 0.523524
vt 0.625000 0.726476
vt 0.375000 0.726476
vt 0.631890 0.506890
vt 0.648524 0.500000
vt 0.851476 0.500000
vt 0.868110 0.506890
vt 0.875000 0.523524
vt 0.875000 0.726476
vt 0.868110 0.743110
vt 0.851476 0.750000
vt 0.648524 0.750000
vt 0.631890 0.743110
vt 0.375000 0.023524
vt 0.625000 0.023524
vt 0.625000 0.226476
vt 0.375000 0.226476
vt 0.375000 0.273524
vt 0.625000 0.273524
vt 0.625000 0.476476
vt 0.375000 0.476476
vt 0.625000 1.000000
vt 0.375000 1.000000
vt 0.375000 0.000000
vt 0.625000 0.000000
vt 0.375000 0.250000
vt 0.625000 0.250000
vt 0.375000 0.500000
vt 0.625000 0.500000
vt 0.375000 0.750000
vt 0.625000 0.750000
vt 0.125000 0.523524
vt 0.131890 0.506890
vt 0.148524 0.500000
vt 0.351476 0.500000
vt 0.368110 0.506890
vt 0.368110 0.743110
vt 0.351476 0.750000
vt 0.148524 0.750000
vt 0.131890 0.743110
vt 0.125000 0.726476
vn 0.0000 0.0000 1.0000
vn 1.0000 0.0000 0.0000
vn 0.0000 1.0000 0.0000
vn -1.0000 0.0000 0.0000
vn 0.0000 0.0000 -1.0000
vn -0.3827 0.0000 0.9239
vn -0.9239 0.0000 0.3827
vn -0.3827 0.0000 -0.9239
vn -0.9239 0.0000 -0.3827
vn 0.9239 0.0000 -0.3827
vn 0.3827 0.0000 -0.9239
vn 0.3827 0.0000 0.9239
vn 0.9239 0.0000 0.3827
vn 0.0000 -1.0000 0.0000
usemtl Material
s off
f 14/1/1 16/2/1 5/3/1 1/4/1
f 20/5/2 22/6/2 17/7/2 13/8/2
f 22/6/3 24/9/3 23/10/3 10/11/3 12/12/3 11/13/3 4/14/3 6/15/3 5/16/3 16/17/3 18/18/3 17/7/3
f 2/19/4 4/20/4 11/21/4 7/22/4
f 8/23/5 10/24/5 23/25/5 19/26/5
f 1/4/6 5/3/6 6/27/6 3/28/6
f 3/29/7 6/30/7 4/20/7 2/19/7
f 10/24/8 8/23/8 9/31/8 12/32/8
f 12/32/9 9/31/9 7/22/9 11/21/9
f 22/6/10 20/5/10 21/33/10 24/34/10
f 24/34/11 21/33/11 19/26/11 23/25/11
f 16/2/12 14/1/12 15/35/12 18/36/12
f 18/36/13 15/35/13 13/8/13 17/7/13
f 7/37/14 9/38/14 8/39/14 19/40/14 21/41/14 20/5/14 13/8/14 15/42/14 14/43/14 1/44/14 3/45/14 2/46/14
o Cube.001_Cube.006
v -0.237435 0.335554 0.292476
v -0.292476 0.335554 0.237435
v -0.276355 0.335554 0.276355
v -0.292476 0.427464 0.237435
v -0.237435 0.427464 0.292476
v -0.276355 0.427464 0.276355
v -0.292476 0.335554 -0.237435
v -0.237435 0.335554 -0.292476
v -0.276355 0.335554 -0.276355
v -0.237435 0.427464 -0.292476
v -0.292476 0.427464 -0.237435
v -0.276355 0.427464 -0.276355
v 0.292476 0.335554 0.237435
v 0.237435 0.335554 0.292476
v 0.276355 0.335554 0.276355
v 0.237435 0.427464 0.292476
v 0.292476 0.427464 0.237435
v 0.276355 0.427464 0.276355
v 0.237435 0.335554 -0.292476
v 0.292476 0.335554 -0.237435
v 0.276355 0.335554 -0.276355
v 0.292476 0.427464 -0.237435
v 0.237435 0.427464 -0.292476
v 0.276355 0.427464 -0.276355
vt 0.375000 0.773524
vt 0.625000 0.773524
vt 0.625000 0.976476
vt 0.375000 0.976476
vt 0.375000 0.523524
vt 0.625000 0.523524
vt 0.625000 0.726476
vt 0.375000 0.726476
vt 0.631890 0.506890
vt 0.648524 0.500000
vt 0.851476 0.500000
vt 0.868110 0.506890
vt 0.875000 0.523524
vt 0.875000 0.726476
vt 0.868110 0.743110
vt 0.851476 0.750000
vt 0.648524 0.750000
vt 0.631890 0.743110
vt 0.375000 0.023524
vt 0.625000 0.023524
vt 0.625000 0.226476
vt 0.375000 0.226476
vt 0.375000 0.273524
vt 0.625000 0.273524
vt 0.625000 0.476476
vt 0.375000 0.476476
vt 0.625000 1.000000
vt 0.375000 1.000000
vt 0.375000 0.000000
vt 0.625000 0.000000
vt 0.375000 0.250000
vt 0.625000 0.250000
vt 0.375000 0.500000
vt 0.625000 0.500000
vt 0.375000 0.750000
vt 0.625000 0.750000
vt 0.125000 0.523524
vt 0.131890 0.506890
vt 0.148524 0.500000
vt 0.351476 0.500000
vt 0.368110 0.506890
vt 0.368110 0.743110
vt 0.351476 0.750000
vt 0.148524 0.750000
vt 0.131890 0.743110
vt 0.125000 0.726476
vn 0.0000 0.0000 1.0000
vn 1.0000 0.0000 0.0000
vn 0.0000 1.0000 0.0000
vn -1.0000 0.0000 0.0000
vn 0.0000 0.0000 -1.0000
vn -0.3827 0.0000 0.9239
vn -0.9239 0.0000 0.3827
vn -0.3827 0.0000 -0.9239
vn -0.9239 0.0000 -0.3827
vn 0.9239 0.0000 -0.3827
vn 0.3827 0.0000 -0.9239
vn 0.3827 0.0000 0.9239
vn 0.9239 0.0000 0.3827
vn 0.0000 -1.0000 0.0000
usemtl Material
s off
f 38/47/15 40/48/15 29/49/15 25/50/15
f 44/51/16 46/52/16 41/53/16 37/54/16
f 46/52/17 48/55/17 47/56/17 34/57/17 36/58/17 35/59/17 28/60/17 30/61/17 29/62/17 40/63/17 42/64/17 41/53/17
f 26/65/18 28/66/18 35/67/18 31/68/18
f 32/69/19 34/70/19 47/71/19 43/72/19
f 25/50/20 29/49/20 30/73/20 27/74/20
f 27/75/21 30/76/21 28/66/21 26/65/21
f 34/70/22 32/69/22 33/77/22 36/78/22
f 36/78/23 33/77/23 31/68/23 35/67/23
f 46/52/24 44/51/24 45/79/24 48/80/24
f 48/80/25 45/79/25 43/72/25 47/71/25
f 40/48/26 38/47/26 39/81/26 42/82/26
f 42/82/27 39/81/27 37/54/27 41/53/27
f 31/83/28 33/84/28 32/85/28 43/86/28 45/87/28 44/51/28 37/54/28 39/88/28 38/89/28 25/90/28 27/91/28 26/92/28
o Cylinder
v -0.130081 0.465874 0.046260
v -0.130081 0.554492 0.046260
v -0.112696 0.465874 0.047973
v -0.112696 0.554492 0.047973
v -0.095978 0.465874 0.053044
v -0.095978 0.554492 0.053044
v -0.080571 0.465874 0.061279
v -0.080571 0.554492 0.061279
v -0.067067 0.465874 0.072362
v -0.067067 0.554492 0.072362
v -0.055984 0.465874 0.085866
v -0.055984 0.554492 0.085866
v -0.047749 0.465874 0.101273
v -0.047749 0.554492 0.101273
v -0.042678 0.465874 0.117990
v -0.042678 0.554492 0.117990
v -0.040966 0.465874 0.135376
v -0.040966 0.554492 0.135376
v -0.042678 0.465874 0.152762
v -0.042678 0.554492 0.152762
v -0.047749 0.465874 0.169479
v -0.047749 0.554492 0.169479
v -0.055984 0.465874 0.184886
v -0.055984 0.554492 0.184886
v -0.067067 0.465874 0.198390
v -0.067067 0.554492 0.198390
v -0.080571 0.465874 0.209473
v -0.080571 0.554492 0.209473
v -0.095978 0.465874 0.217708
v -0.095978 0.554492 0.217708
v -0.112696 0.465874 0.222779
v -0.112696 0.554492 0.222779
v -0.130081 0.465874 0.224492
v -0.130081 0.554492 0.224492
v -0.147467 0.465874 0.222779
v -0.147467 0.554492 0.222779
v -0.164185 0.465874 0.217708
v -0.164185 0.554492 0.217708
v -0.179592 0.465874 0.209473
v -0.179592 0.554492 0.209473
v -0.193096 0.465874 0.198390
v -0.193096 0.554492 0.198390
v -0.204178 0.465874 0.184886
v -0.204178 0.554492 0.184886
v -0.212414 0.465874 0.169479
v -0.212414 0.554492 0.169479
v -0.217485 0.465874 0.152762
v -0.217485 0.554492 0.152762
v -0.219197 0.465874 0.135376
v -0.219197 0.554492 0.135376
v -0.217485 0.465874 0.117990
v -0.217485 0.554492 0.117990
v -0.212414 0.465874 0.101273
v -0.212414 0.554492 0.101273
v -0.204178 0.465874 0.085866
v -0.204178 0.554492 0.085866
v -0.193096 0.465874 0.072362
v -0.193096 0.554492 0.072362
v -0.179592 0.465874 0.061279
v -0.179592 0.554492 0.061279
v -0.164185 0.465874 0.053044
v -0.164185 0.554492 0.053044
v -0.147467 0.465874 0.047973
v -0.147467 0.554492 0.047973
vt 1.000000 0.500000
vt 1.000000 1.000000
vt 0.968750 1.000000
vt 0.968750 0.500000
vt 0.937500 1.000000
vt 0.937500 0.500000
vt 0.906250 1.000000
vt 0.906250 0.500000
vt 0.875000 1.000000
vt 0.875000 0.500000
vt 0.843750 1.000000
vt 0.843750 0.500000
vt 0.812500 1.000000
vt 0.812500 0.500000
vt 0.781250 1.000000
vt 0.781250 0.500000
vt 0.750000 1.000000
vt 0.750000 0.500000
vt 0.718750 1.000000
vt 0.718750 0.500000
vt 0.687500 1.000000
vt 0.687500 0.500000
vt 0.656250 1.000000
vt 0.656250 0.500000
vt 0.625000 1.000000
vt 0.625000 0.500000
vt 0.593750 1.000000
vt 0.593750 0.500000
vt 0.562500 1.000000
vt 0.562500 0.500000
vt 0.531250 1.000000
vt 0.531250 0.500000
vt 0.500000 1.000000
vt 0.500000 0.500000
vt 0.468750 1.000000
vt 0.468750 0.500000
vt 0.437500 1.000000
vt 0.437500 0.500000
vt 0.406250 1.000000
vt 0.406250 0.500000
vt 0.375000 1.000000
vt 0.375000 0.500000
vt 0.343750 1.000000
vt 0.343750 0.500000
vt 0.312500 1.000000
vt 0.312500 0.500000
vt 0.281250 1.000000
vt 0.281250 0.500000
vt 0.250000 1.000000
vt 0.250000 0.500000
vt 0.218750 1.000000
vt 0.218750 0.500000
vt 0.187500 1.000000
vt 0.187500 0.500000
vt 0.156250 1.000000
vt 0.156250 0.500000
vt 0.125000 1.000000
vt 0.125000 0.500000
vt 0.093750 1.000000
vt 0.093750 0.500000
vt 0.062500 1.000000
vt 0.062500 0.500000
vt 0.296822 0.485388
vt 0.250000 0.490000
vt 0.203178 0.485388
vt 0.158156 0.471731
vt 0.116663 0.449553
vt 0.080294 0.419706
vt 0.050447 0.383337
vt 0.028269 0.341844
vt 0.014612 0.296822
vt 0.010000 0.250000
vt 0.014612 0.203178
vt 0.028269 0.158156
vt 0.050447 0.116663
vt 0.080294 0.080294
vt 0.116663 0.050447
vt 0.158156 0.028269
vt 0.203178 0.014612
vt 0.250000 0.010000
vt 0.296822 0.014612
vt 0.341844 0.028269
vt 0.383337 0.050447
vt 0.419706 0.080294
vt 0.449553 0.116663
vt 0.471731 0.158156
vt 0.485388 0.203178
vt 0.490000 0.250000
vt 0.485388 0.296822
vt 0.471731 0.341844
vt 0.449553 0.383337
vt 0.419706 0.419706
vt 0.383337 0.449553
vt 0.341844 0.471731
vt 0.031250 1.000000
vt 0.031250 0.500000
vt 0.000000 1.000000
vt 0.000000 0.500000
vt 0.750000 0.490000
vt 0.796822 0.485388
vt 0.841844 0.471731
vt 0.883337 0.449553
vt 0.919706 0.419706
vt 0.949553 0.383337
vt 0.971731 0.341844
vt 0.985388 0.296822
vt 0.990000 0.250000
vt 0.985388 0.203178
vt 0.971731 0.158156
vt 0.949553 0.116663
vt 0.919706 0.080294
vt 0.883337 0.050447
vt 0.841844 0.028269
vt 0.796822 0.014612
vt 0.750000 0.010000
vt 0.703178 0.014612
vt 0.658156 0.028269
vt 0.616663 0.050447
vt 0.580294 0.080294
vt 0.550447 0.116663
vt 0.528269 0.158156
vt 0.514612 0.203178
vt 0.510000 0.250000
vt 0.514612 0.296822
vt 0.528269 0.341844
vt 0.550447 0.383337
vt 0.580294 0.419706
vt 0.616663 0.449553
vt 0.658156 0.471731
vt 0.703178 0.485388
vn 0.0980 0.0000 -0.9952
vn 0.2903 0.0000 -0.9569
vn 0.4714 0.0000 -0.8819
vn 0.6344 0.0000 -0.7730
vn 0.7730 0.0000 -0.6344
vn 0.8819 0.0000 -0.4714
vn 0.9569 0.0000 -0.2903
vn 0.9952 0.0000 -0.0980
vn 0.9952 0.0000 0.0980
vn 0.9569 0.0000 0.2903
vn 0.8819 0.0000 0.4714
vn 0.7730 0.0000 0.6344
vn 0.6344 0.0000 0.7730
vn 0.4714 0.0000 0.8819
vn 0.2903 0.0000 0.9569
vn 0.0980 0.0000 0.9952
vn -0.0980 0.0000 0.9952
vn -0.2903 0.0000 0.9569
vn -0.4714 0.0000 0.8819
vn -0.6344 0.0000 0.7730
vn -0.7730 0.0000 0.6344
vn -0.8819 0.0000 0.4714
vn -0.9569 0.0000 0.2903
vn -0.9952 0.0000 0.0980
vn -0.9952 0.0000 -0.0980
vn -0.9569 0.0000 -0.2903
vn -0.8819 0.0000 -0.4714
vn -0.7730 0.0000 -0.6344
vn -0.6344 0.0000 -0.7730
vn -0.4714 0.0000 -0.8819
vn 0.0000 1.0000 -0.0000
vn -0.2903 0.0000 -0.9569
vn -0.0980 0.0000 -0.9952
vn 0.0000 -1.0000 -0.0000
usemtl Material.006
s off
f 49/93/29 50/94/29 52/95/29 51/96/29
f 51/96/30 52/95/30 54/97/30 53/98/30
f 53/98/31 54/97/31 56/99/31 55/100/31
f 55/100/32 56/99/32 58/101/32 57/102/32
f 57/102/33 58/101/33 60/103/33 59/104/33
f 59/104/34 60/103/34 62/105/34 61/106/34
f 61/106/35 62/105/35 64/107/35 63/108/35
f 63/108/36 64/107/36 66/109/36 65/110/36
f 65/110/37 66/109/37 68/111/37 67/112/37
f 67/112/38 68/111/38 70/113/38 69/114/38
f 69/114/39 70/113/39 72/115/39 71/116/39
f 71/116/40 72/115/40 74/117/40 73/118/40
f 73/118/41 74/117/41 76/119/41 75/120/41
f 75/120/42 76/119/42 78/121/42 77/122/42
f 77/122/43 78/121/43 80/123/43 79/124/43
f 79/124/44 80/123/44 82/125/44 81/126/44
f 81/126/45 82/125/45 84/127/45 83/128/45
f 83/128/46 84/127/46 86/129/46 85/130/46
f 85/130/47 86/129/47 88/131/47 87/132/47
f 87/132/48 88/131/48 90/133/48 89/134/48
f 89/134/49 90/133/49 92/135/49 91/136/49
f 91/136/50 92/135/50 94/137/50 93/138/50
f 93/138/51 94/137/51 96/139/51 95/140/51
f 95/140/52 96/139/52 98/141/52 97/142/52
f 97/142/53 98/141/53 100/143/53 99/144/53
f 99/144/54 100/143/54 102/145/54 101/146/54
f 101/146/55 102/145/55 104/147/55 103/148/55
f 103/148/56 104/147/56 106/149/56 105/150/56
f 105/150/57 106/149/57 108/151/57 107/152/57
f 107/152/58 108/151/58 110/153/58 109/154/58
f 52/155/59 50/156/59 112/157/59 110/158/59 108/159/59 106/160/59 104/161/59 102/162/59 100/163/59 98/164/59 96/165/59 94/166/59 92/167/59 90/168/59 88/169/59 86/170/59 84/171/59 82/172/59 80/173/59 78/174/59 76/175/59 74/176/59 72/177/59 70/178/59 68/179/59 66/180/59 64/181/59 62/182/59 60/183/59 58/184/59 56/185/59 54/186/59
f 109/154/60 110/153/60 112/187/60 111/188/60
f 111/188/61 112/187/61 50/189/61 49/190/61
f 49/191/62 51/192/62 53/193/62 55/194/62 57/195/62 59/196/62 61/197/62 63/198/62 65/199/62 67/200/62 69/201/62 71/202/62 73/203/62 75/204/62 77/205/62 79/206/62 81/207/62 83/208/62 85/209/62 87/210/62 89/211/62 91/212/62 93/213/62 95/214/62 97/215/62 99/216/62 101/217/62 103/218/62 105/219/62 107/220/62 109/221/62 111/222/62
o Circle.001_Circle
v 0.130596 0.537158 0.157379
v 0.130596 0.537158 0.054391
v 0.041406 0.537158 0.208873
v 0.219786 0.537158 0.208873
v 0.041406 0.552676 0.208873
v 0.130596 0.552676 0.054391
v 0.130596 0.552676 0.157379
v 0.219786 0.552676 0.208873
vt 0.500000 0.500000
vt 0.066987 0.250000
vt 0.500000 1.000000
vt 0.933013 0.250000
vt 0.500000 0.500000
vt 0.500000 1.000000
vt 0.066987 0.250000
vt 0.933013 0.250000
vn 0.0000 -1.0000 0.0000
vn 0.0000 1.0000 0.0000
vn 0.8660 0.0000 -0.5000
vn 0.0000 0.0000 1.0000
vn -0.8660 0.0000 -0.5000
usemtl Material.006
s off
f 113/223/63 115/224/63 114/225/63
f 113/223/63 116/226/63 115/224/63
f 113/223/63 114/225/63 116/226/63
f 119/227/64 118/228/64 117/229/64
f 119/227/64 117/229/64 120/230/64
f 119/227/64 120/230/64 118/228/64
f 116/226/65 114/225/65 118/228/65 120/230/65
f 115/224/66 116/226/66 120/230/66 117/229/66
f 114/225/67 115/224/67 117/229/67 118/228/67
o Circle.002
v -0.132959 0.530683 -0.129105
v -0.162745 0.530683 -0.171644
v -0.253631 0.530683 -0.170656
v -0.182621 0.530683 -0.113922
v -0.209766 0.530683 -0.027178
v -0.133865 0.530683 -0.077182
v -0.059756 0.530683 -0.024560
v -0.083857 0.530683 -0.112198
v -0.010909 0.530683 -0.166419
v -0.101706 0.530683 -0.170579
v -0.130731 0.530683 -0.256711
v -0.162745 0.530683 -0.171644
v -0.182621 0.530683 -0.113922
v -0.133865 0.530683 -0.077182
v -0.083857 0.530683 -0.112198
v -0.101706 0.530683 -0.170579
v -0.132959 0.553721 -0.129105
v -0.162745 0.553721 -0.171644
v -0.253631 0.553721 -0.170656
v -0.182621 0.553721 -0.113922
v -0.209766 0.553721 -0.027178
v -0.133865 0.553721 -0.077182
v -0.059756 0.553721 -0.024560
v -0.083857 0.553721 -0.112198
v -0.010909 0.553721 -0.166419
v -0.101706 0.553721 -0.170579
v -0.130731 0.553721 -0.256711
v -0.162745 0.553721 -0.171644
v -0.182621 0.553721 -0.113922
v -0.133865 0.553721 -0.077182
v -0.083857 0.553721 -0.112198
v -0.101706 0.553721 -0.170579
vt 0.500000 0.500000
vt 0.206107 0.904508
vt 0.500000 1.000000
vt 0.024472 0.654508
vt 0.024472 0.345491
vt 0.206107 0.095491
vt 0.500000 0.000000
vt 0.793893 0.095492
vt 0.975528 0.345491
vt 0.975528 0.654509
vt 0.793893 0.904508
vt 0.500000 0.500000
vt 0.500000 1.000000
vt 0.206107 0.904508
vt 0.024472 0.654508
vt 0.024472 0.345491
vt 0.206107 0.095491
vt 0.500000 0.000000
vt 0.793893 0.095492
vt 0.975528 0.345491
vt 0.975528 0.654509
vt 0.793893 0.904508
vt 0.000000 0.000000
vt 0.000000 0.000000
vt 0.000000 0.000000
vt 0.000000 0.000000
vt 0.000000 0.000000
vt 0.000000 0.000000
vt 0.000000 0.000000
vt 0.000000 0.000000
vt 0.000000 0.000000
vt 0.000000 0.000000
vt 0.000000 0.000000
vt 0.000000 0.000000
vt 0.000000 0.000000
vt 0.000000 0.000000
vt 0.000000 0.000000
vt 0.000000 0.000000
vt 0.000000 0.000000
vt 0.000000 0.000000
vt 0.000000 0.000000
vt 0.000000 0.000000
vn 0.0000 -1.0000 0.0000
vn 0.0000 1.0000 0.0000
vn 0.9476 0.0000 -0.3193
vn -0.6242 0.0000 0.7813
vn 0.9642 0.0000 -0.2652
vn -0.9359 0.0000 -0.3522
vn -0.9544 0.0000 -0.2987
vn 0.0000 0.0000 1.0000
vn 0.5965 0.0000 0.8026
vn 0.5501 0.0000 0.8351
vn -0.0109 0.0000 -0.9999
vn 0.0458 0.0000 -0.9990
vn -0.5790 0.0000 0.8154
usemtl Material.006
s off
f 121/231/68 123/232/68 122/233/68
f 121/231/68 124/234/68 123/232/68
f 121/231/68 125/235/68 124/234/68
f 121/231/68 126/236/68 125/235/68
f 121/231/68 127/237/68 126/236/68
f 121/231/68 128/238/68 127/237/68
f 121/231/68 129/239/68 128/238/68
f 121/231/68 130/240/68 129/239/68
f 121/231/68 131/241/68 130/240/68
f 121/231/68 122/233/68 131/241/68
f 137/242/69 138/243/69 139/244/69
f 137/242/69 139/244/69 140/245/69
f 137/242/69 140/245/69 141/246/69
f 137/242/69 141/246/69 142/247/69
f 137/242/69 142/247/69 143/248/69
f 137/242/69 143/248/69 144/249/69
f 137/242/69 144/249/69 145/250/69
f 137/242/69 145/250/69 146/251/69
f 137/242/69 146/251/69 147/252/69
f 137/242/69 147/252/69 138/243/69
f 130/240/70 131/241/70 147/252/70 146/251/70
f 123/232/71 124/234/71 140/245/71 139/244/71
f 127/237/72 128/238/72 144/249/72 143/248/72
f 131/241/73 122/233/73 138/243/73 147/252/73
f 124/234/74 125/235/74 141/246/74 140/245/74
f 122/253/75 132/254/75 148/255/75 138/256/75
f 128/238/76 129/239/76 145/250/76 144/249/76
f 124/257/75 133/258/75 149/259/75 140/260/75
f 125/235/77 126/236/77 142/247/77 141/246/77
f 126/261/75 134/262/75 150/263/75 142/264/75
f 122/233/78 123/232/78 139/244/78 138/243/78
f 129/239/79 130/240/79 146/251/79 145/250/79
f 128/265/75 135/266/75 151/267/75 144/268/75
f 126/236/80 127/237/80 143/248/80 142/247/80
f 130/269/75 136/270/75 152/271/75 146/272/75
o Cube.004_Cube.009
v -0.237435 0.449402 0.292476
v -0.292476 0.449402 0.237435
v -0.276355 0.449402 0.276355
v -0.292476 0.541312 0.237435
v -0.237435 0.541312 0.292476
v -0.276355 0.541312 0.276355
v -0.292476 0.449402 -0.237435
v -0.237435 0.449402 -0.292476
v -0.276355 0.449402 -0.276355
v -0.237435 0.541312 -0.292476
v -0.292476 0.541312 -0.237435
v -0.276355 0.541312 -0.276355
v 0.292476 0.449402 0.237435
v 0.237435 0.449402 0.292476
v 0.276355 0.449402 0.276355
v 0.237435 0.541312 0.292476
v 0.292476 0.541312 0.237435
v 0.276355 0.541312 0.276355
v 0.237435 0.449402 -0.292476
v 0.292476 0.449402 -0.237435
v 0.276355 0.449402 -0.276355
v 0.292476 0.541312 -0.237435
v 0.237435 0.541312 -0.292476
v 0.276355 0.541312 -0.276355
v 0.045724 0.541312 -0.047605
v 0.045724 0.541312 -0.206298
v 0.204417 0.541312 -0.047605
v 0.204417 0.541312 -0.206298
v 0.045724 0.449402 -0.206298
v 0.045724 0.449402 -0.047605
v 0.204417 0.449402 -0.047605
v 0.204417 0.449402 -0.206298
vt 0.375000 0.773524
vt 0.625000 0.773524
vt 0.625000 0.976476
vt 0.375000 0.976476
vt 0.375000 0.523524
vt 0.625000 0.523524
vt 0.625000 0.726476
vt 0.375000 0.726476
vt 0.730458 0.536831
vt 0.851476 0.500000
vt 0.868110 0.506890
vt 0.875000 0.523524
vt 0.875000 0.726476
vt 0.868110 0.743110
vt 0.851476 0.750000
vt 0.648524 0.750000
vt 0.631890 0.743110
vt 0.631890 0.506890
vt 0.662635 0.536831
vt 0.662635 0.604655
vt 0.730458 0.604654
vt 0.648524 0.500000
vt 0.375000 0.023524
vt 0.625000 0.023524
vt 0.625000 0.226476
vt 0.375000 0.226476
vt 0.375000 0.273524
vt 0.625000 0.273524
vt 0.625000 0.476476
vt 0.375000 0.476476
vt 0.625000 1.000000
vt 0.375000 1.000000
vt 0.375000 0.000000
vt 0.625000 0.000000
vt 0.375000 0.250000
vt 0.625000 0.250000
vt 0.375000 0.500000
vt 0.625000 0.500000
vt 0.375000 0.750000
vt 0.625000 0.750000
vt 0.269542 0.536831
vt 0.131890 0.506890
vt 0.148524 0.500000
vt 0.351476 0.500000
vt 0.337365 0.536831
vt 0.368110 0.506890
vt 0.368110 0.743110
vt 0.351476 0.750000
vt 0.148524 0.750000
vt 0.131890 0.743110
vt 0.125000 0.726476
vt 0.125000 0.523524
vt 0.269542 0.604654
vt 0.337365 0.604654
vt 0.401273 0.250000
vt 0.576809 0.250000
vt 0.576809 0.000000
vt 0.401273 0.000000
vt 0.401273 0.500000
vt 0.576809 0.500000
vt 0.576809 0.750000
vt 0.401273 0.750000
vt 0.576809 1.000000
vt 0.401273 1.000000
vn 0.0000 0.0000 1.0000
vn 1.0000 0.0000 0.0000
vn 0.0000 1.0000 -0.0000
vn -1.0000 0.0000 0.0000
vn 0.0000 0.0000 -1.0000
vn -0.3827 0.0000 0.9239
vn -0.9239 0.0000 0.3827
vn -0.3827 0.0000 -0.9239
vn -0.9239 0.0000 -0.3827
vn 0.9239 0.0000 -0.3827
vn 0.3827 0.0000 -0.9239
vn 0.3827 0.0000 0.9239
vn 0.9239 0.0000 0.3827
vn 0.0000 -1.0000 -0.0000
usemtl Material
s off
f 166/273/81 168/274/81 157/275/81 153/276/81
f 172/277/82 174/278/82 169/279/82 165/280/82
f 178/281/83 162/282/83 164/283/83 163/284/83 156/285/83 158/286/83 157/287/83 168/288/83 170/289/83 169/279/83 174/278/83 176/290/83 180/291/83 179/292/83 177/293/83
f 180/291/83 176/290/83 175/294/83 162/282/83 178/281/83
f 154/295/84 156/296/84 163/297/84 159/298/84
f 160/299/85 162/300/85 175/301/85 171/302/85
f 153/276/86 157/275/86 158/303/86 155/304/86
f 155/305/87 158/306/87 156/296/87 154/295/87
f 162/300/88 160/299/88 161/307/88 164/308/88
f 164/308/89 161/307/89 159/298/89 163/297/89
f 174/278/90 172/277/90 173/309/90 176/310/90
f 176/310/91 173/309/91 171/302/91 175/301/91
f 168/274/92 166/273/92 167/311/92 170/312/92
f 170/312/93 167/311/93 165/280/93 169/279/93
f 181/313/94 161/314/94 160/315/94 171/316/94 184/317/94
f 171/316/94 173/318/94 172/277/94 165/280/94 167/319/94 166/320/94 153/321/94 155/322/94 154/323/94 159/324/94 161/314/94 181/313/94 182/325/94 183/326/94 184/317/94
f 181/327/82 178/328/82 177/329/82 182/330/82
f 184/331/81 180/332/81 178/328/81 181/327/81
f 179/333/84 180/332/84 184/331/84 183/334/84
f 177/335/85 179/333/85 183/334/85 182/336/85
