# Blender v3.0.0 OBJ File: 'expo.blend'
# www.blender.org
mtllib expo.mtl
o Sphere_Sphere.001
v 0.058780 0.644564 -0.110699
v 0.055676 0.648229 -0.154627
v 0.062064 0.631390 -0.194981
v 0.076233 0.598561 -0.220948
v 0.094386 0.558538 -0.225569
v 0.099642 0.645012 -0.098368
v 0.126451 0.649004 -0.133270
v 0.143788 0.632285 -0.170320
v 0.147008 0.599336 -0.199590
v 0.135248 0.558985 -0.213238
v 0.114161 0.615173 -0.071521
v 0.151599 0.597321 -0.086769
v 0.172826 0.572607 -0.116625
v 0.172156 0.547653 -0.153089
v 0.149767 0.529146 -0.186391
v 0.070545 0.621379 -0.074966
v 0.087819 0.584886 -0.057004
v 0.105972 0.544863 -0.061626
v 0.120141 0.512033 -0.087592
v 0.126529 0.495195 -0.127946
v 0.123424 0.498859 -0.171875
v 0.111659 0.522044 -0.207607
v 0.046956 0.584439 -0.069335
v 0.035196 0.544088 -0.082983
v 0.038416 0.511138 -0.112254
v 0.055753 0.494420 -0.149304
v 0.082562 0.498412 -0.184205
v 0.032437 0.614278 -0.096182
v 0.010048 0.595771 -0.129484
v 0.009378 0.570817 -0.165948
v 0.030605 0.546103 -0.195804
v 0.068043 0.528251 -0.211053
v 0.067461 0.618884 -0.204873
v 0.145015 0.619733 -0.181470
v 0.172571 0.563101 -0.130516
v 0.122574 0.505619 -0.102965
v 0.045021 0.504770 -0.126368
v 0.017464 0.561402 -0.177322
vt 0.666667 0.166667
vt 0.666667 0.333333
vt 0.500000 0.333333
vt 0.500000 0.166667
vt 0.583333 0.000000
vt 0.416667 0.000000
vt 0.333333 0.166667
vt 0.333333 0.333333
vt 0.250000 0.000000
vt 0.166667 0.166667
vt 0.166667 0.333333
vt 0.083333 0.000000
vt 0.000000 0.166667
vt 0.000000 0.333333
vt 0.916667 0.000000
vt 1.000000 0.166667
vt 0.833333 0.166667
vt 1.000000 0.333333
vt 0.833333 0.333333
vt 0.750000 0.000000
vt 0.833333 0.436509
vt 0.666667 0.436509
vt 1.000000 0.436509
vt 0.166667 0.436509
vt 0.000000 0.436509
vt 0.333333 0.436509
vt 0.500000 0.436509
vt 0.666667 0.500000
vt 0.666667 0.666667
vt 0.500000 0.666667
vt 0.500000 0.500000
vt 0.666667 0.833333
vt 0.583333 1.000000
vt 0.500000 0.833333
vt 0.333333 0.666667
vt 0.333333 0.500000
vt 0.416667 1.000000
vt 0.333333 0.833333
vt 0.250000 1.000000
vt 0.166667 0.833333
vt 0.166667 0.500000
vt 0.166667 0.666667
vt 0.000000 0.500000
vt 0.000000 0.833333
vt 0.000000 0.666667
vt 0.083333 1.000000
vt 1.000000 0.500000
vt 0.833333 0.500000
vt 1.000000 0.666667
vt 1.000000 0.833333
vt 0.833333 0.833333
vt 0.833333 0.666667
vt 0.916667 1.000000
vt 0.750000 1.000000
vn 0.2785 0.2339 -0.9315
vn 0.2773 -0.3154 -0.9075
vn 0.4987 -0.4329 -0.7509
vn 0.8448 -0.0666 -0.5309
vn 0.4515 -0.6733 -0.5855
vn 0.7239 -0.6814 -0.1080
vn 0.1828 -0.7962 -0.5768
vn 0.0367 -0.9956 -0.0856
vn -0.0386 -0.6787 -0.7334
vn -0.5295 -0.6951 -0.4862
vn 0.0086 -0.4383 -0.8988
vn -0.4086 -0.0804 -0.9092
vn -0.6753 0.2558 -0.6918
vn -0.8311 -0.5365 -0.1468
vn -0.1014 -0.9237 0.3694
vn 0.7841 -0.5188 0.3406
vn 0.9399 0.2734 -0.2044
vn 0.2102 0.6607 -0.7206
vn 0.1014 0.9237 -0.3694
vn -0.1828 0.7962 0.5768
vn -0.0367 0.9956 0.0856
vn 0.8311 0.5365 0.1468
vn 0.0386 0.6787 0.7334
vn 0.5295 0.6951 0.4862
vn -0.0086 0.4383 0.8988
vn 0.4086 0.0804 0.9092
vn 0.6753 -0.2558 0.6918
vn -0.2785 -0.2339 0.9315
vn -0.2102 -0.6607 0.7206
vn -0.2773 0.3154 0.9075
vn -0.8448 0.0666 0.5309
vn -0.9399 -0.2734 0.2044
vn -0.4987 0.4329 0.7509
vn -0.7239 0.6814 0.1080
vn -0.7841 0.5188 -0.3406
vn -0.4515 0.6733 0.5855
usemtl Material
s off
f 5/1/1 4/2/1 9/3/1 10/4/1
f 22/5/2 5/1/2 10/4/2
f 22/6/3 10/4/3 15/7/3
f 10/4/4 9/3/4 14/8/4 15/7/4
f 22/9/5 15/7/5 21/10/5
f 15/7/6 14/8/6 20/11/6 21/10/6
f 22/12/7 21/10/7 27/13/7
f 21/10/8 20/11/8 26/14/8 27/13/8
f 22/15/9 27/16/9 32/17/9
f 27/16/10 26/18/10 31/19/10 32/17/10
f 22/20/11 32/17/11 5/1/11
f 32/17/12 31/19/12 4/2/12 5/1/12
f 31/19/13 38/21/13 33/22/13 4/2/13
f 26/18/14 37/23/14 38/21/14 31/19/14
f 20/11/15 36/24/15 37/25/15 26/14/15
f 14/8/16 35/26/16 36/24/16 20/11/16
f 9/3/17 34/27/17 35/26/17 14/8/17
f 4/2/18 33/22/18 34/27/18 9/3/18
usemtl Material.003
f 3/28/19 2/29/19 7/30/19 8/31/19
f 1/32/20 16/33/20 6/34/20
f 33/22/18 3/28/18 8/31/18 34/27/18
f 2/29/21 1/32/21 6/34/21 7/30/21
f 8/31/22 7/30/22 12/35/22 13/36/22
f 6/34/23 16/37/23 11/38/23
f 34/27/17 8/31/17 13/36/17 35/26/17
f 7/30/24 6/34/24 11/38/24 12/35/24
f 11/38/25 16/39/25 17/40/25
f 35/26/16 13/36/16 19/41/16 36/24/16
f 12/35/26 11/38/26 17/40/26 18/42/26
f 13/36/27 12/35/27 18/42/27 19/41/27
f 36/24/15 19/41/15 25/43/15 37/25/15
f 18/42/28 17/40/28 23/44/28 24/45/28
f 19/41/29 18/42/29 24/45/29 25/43/29
f 17/40/30 16/46/30 23/44/30
f 37/23/14 25/47/14 30/48/14 38/21/14
f 24/49/31 23/50/31 28/51/31 29/52/31
f 25/47/32 24/49/32 29/52/32 30/48/32
f 23/50/33 16/53/33 28/51/33
f 38/21/13 30/48/13 3/28/13 33/22/13
f 29/52/34 28/51/34 1/32/34 2/29/34
f 30/48/35 29/52/35 2/29/35 3/28/35
f 28/51/36 16/54/36 1/32/36
