# Blender v3.0.0 OBJ File: 'laravel.blend'
# www.blender.org
mtllib laravel.mtl
o Cube.003_Cube.004
v 0.179766 0.546494 -0.151401
v 0.179766 0.719485 -0.151401
v 0.006775 0.546494 -0.151401
v 0.006775 0.719485 -0.151401
v 0.179766 0.546494 -0.324393
v 0.179766 0.719485 -0.324393
v 0.006775 0.546494 -0.324393
v 0.006775 0.719485 -0.324393
v 0.164914 0.704633 -0.151401
v 0.164914 0.561345 -0.151401
v 0.021626 0.561345 -0.151401
v 0.021626 0.704633 -0.151401
v 0.006775 0.561345 -0.166253
v 0.006775 0.704633 -0.166253
v 0.006775 0.561345 -0.309541
v 0.006775 0.704633 -0.309541
v 0.021626 0.561345 -0.324393
v 0.021626 0.704633 -0.324393
v 0.164914 0.561345 -0.324393
v 0.164914 0.704633 -0.324393
v 0.179766 0.704633 -0.309541
v 0.179766 0.561345 -0.166253
v 0.179766 0.704633 -0.166253
v 0.179766 0.561345 -0.309541
v 0.164914 0.546494 -0.309541
v 0.021626 0.546494 -0.166253
v 0.021626 0.546494 -0.309541
v 0.164914 0.546494 -0.166253
v 0.164914 0.719485 -0.166253
v 0.021626 0.719485 -0.309541
v 0.021626 0.719485 -0.166253
v 0.164914 0.719485 -0.309541
vt 0.375000 0.000000
vt 0.625000 0.000000
vt 0.603537 0.021463
vt 0.396463 0.021463
vt 0.375000 0.250000
vt 0.396463 0.228537
vt 0.396463 0.271463
vt 0.625000 0.250000
vt 0.603537 0.271463
vt 0.375000 0.500000
vt 0.396463 0.478537
vt 0.396463 0.521463
vt 0.625000 0.500000
vt 0.603537 0.521463
vt 0.396463 0.728537
vt 0.375000 0.750000
vt 0.396463 0.771463
vt 0.625000 0.750000
vt 0.603537 0.771463
vt 0.396463 0.978537
vt 0.375000 1.000000
vt 0.146463 0.728537
vt 0.125000 0.750000
vt 0.125000 0.500000
vt 0.146463 0.521463
vt 0.353537 0.728537
vt 0.875000 0.500000
vt 0.875000 0.750000
vt 0.853537 0.728537
vt 0.853537 0.521463
vt 0.646463 0.521463
vt 0.646463 0.728537
vt 0.603537 0.728537
vt 0.603537 0.978537
vt 0.625000 1.000000
vt 0.353537 0.521463
vt 0.603537 0.228537
vt 0.603537 0.478537
vn 0.0000 0.0000 1.0000
vn -1.0000 0.0000 0.0000
vn -0.0000 0.0000 -1.0000
vn 1.0000 0.0000 0.0000
vn 0.0000 -1.0000 -0.0000
vn 0.0000 1.0000 0.0000
usemtl Material.001
s off
f 1/1/1 2/2/1 9/3/1 10/4/1
f 3/5/1 1/1/1 10/4/1 11/6/1
f 13/7/2 3/5/2 4/8/2 14/9/2
f 7/10/2 3/5/2 13/7/2 15/11/2
f 17/12/3 7/10/3 8/13/3 18/14/3
f 19/15/3 5/16/3 7/10/3 17/12/3
f 24/17/4 5/16/4 6/18/4 21/19/4
f 22/20/4 1/21/4 5/16/4 24/17/4
f 28/22/5 1/23/5 3/24/5 26/25/5
f 5/16/5 1/23/5 28/22/5 25/26/5
f 4/27/6 2/28/6 29/29/6 31/30/6
f 6/18/6 8/13/6 30/31/6 32/32/6
f 20/33/3 6/18/3 5/16/3 19/15/3
f 18/14/3 8/13/3 6/18/3 20/33/3
f 23/34/4 2/35/4 1/21/4 22/20/4
f 21/19/4 6/18/4 2/35/4 23/34/4
f 29/29/6 2/28/6 6/18/6 32/32/6
f 30/31/6 8/13/6 4/27/6 31/30/6
f 27/36/5 7/10/5 5/16/5 25/26/5
f 26/25/5 3/24/5 7/10/5 27/36/5
f 12/37/1 4/8/1 3/5/1 11/6/1
f 9/3/1 2/2/1 4/8/1 12/37/1
f 16/38/2 8/13/2 7/10/2 15/11/2
f 14/9/2 4/8/2 8/13/2 16/38/2
o Cube_Cube.007
v 0.178053 0.548207 -0.153114
v 0.178053 0.717772 -0.153114
v 0.008488 0.548207 -0.153114
v 0.008488 0.717772 -0.153114
v 0.178053 0.548207 -0.322680
v 0.178053 0.717772 -0.322680
v 0.008488 0.548207 -0.322680
v 0.008488 0.717772 -0.322680
vt 0.375000 0.000000
vt 0.625000 0.000000
vt 0.625000 0.250000
vt 0.375000 0.250000
vt 0.625000 0.500000
vt 0.375000 0.500000
vt 0.625000 0.750000
vt 0.375000 0.750000
vt 0.625000 1.000000
vt 0.375000 1.000000
vt 0.125000 0.500000
vt 0.125000 0.750000
vt 0.875000 0.500000
vt 0.875000 0.750000
vn -0.0000 0.0000 1.0000
vn -1.0000 0.0000 -0.0000
vn 0.0000 0.0000 -1.0000
vn 1.0000 0.0000 0.0000
vn 0.0000 -1.0000 0.0000
vn 0.0000 1.0000 -0.0000
usemtl None
s off
f 33/39/7 34/40/7 36/41/7 35/42/7
f 35/42/8 36/41/8 40/43/8 39/44/8
f 39/44/9 40/43/9 38/45/9 37/46/9
f 37/46/10 38/45/10 34/47/10 33/48/10
f 35/49/11 39/44/11 37/46/11 33/50/11
f 40/43/12 36/51/12 34/52/12 38/45/12
o Cube.002_Cube.008
v 0.178053 0.371701 0.321033
v 0.178053 0.541267 0.321033
v 0.008488 0.371701 0.321033
v 0.008488 0.541267 0.321033
v 0.178053 0.371701 -0.147435
v 0.178053 0.541267 -0.147435
v 0.008488 0.371701 -0.147435
v 0.008488 0.541267 -0.147435
vt 0.375000 0.000000
vt 0.625000 0.000000
vt 0.625000 0.250000
vt 0.375000 0.250000
vt 0.625000 0.500000
vt 0.375000 0.500000
vt 0.625000 0.750000
vt 0.375000 0.750000
vt 0.625000 1.000000
vt 0.375000 1.000000
vt 0.125000 0.500000
vt 0.125000 0.750000
vt 0.875000 0.500000
vt 0.875000 0.750000
vn 0.0000 0.0000 1.0000
vn -1.0000 0.0000 -0.0000
vn 0.0000 0.0000 -1.0000
vn 1.0000 0.0000 0.0000
vn 0.0000 -1.0000 0.0000
vn 0.0000 1.0000 -0.0000
usemtl None
s off
f 41/53/13 42/54/13 44/55/13 43/56/13
f 43/56/14 44/55/14 48/57/14 47/58/14
f 47/58/15 48/57/15 46/59/15 45/60/15
f 45/60/16 46/59/16 42/61/16 41/62/16
f 43/63/17 47/58/17 45/60/17 41/64/17
f 48/57/18 44/65/18 42/66/18 46/59/18
o Cube.001_Cube.009
v 0.179766 0.369988 0.325765
v 0.179766 0.542980 0.325765
v 0.006775 0.369988 0.325765
v 0.006775 0.542980 0.325765
v 0.179766 0.369988 -0.152167
v 0.179766 0.542980 -0.152167
v 0.006775 0.369988 -0.152167
v 0.164914 0.528128 0.325765
v 0.164914 0.384840 0.325765
v 0.021626 0.384840 0.325765
v 0.021626 0.528128 0.325765
v 0.006775 0.384840 0.306099
v 0.006775 0.528128 0.305229
v 0.006775 0.384840 -0.132501
v 0.006775 0.528128 -0.132501
v 0.021626 0.384840 -0.152167
v 0.021626 0.528128 -0.152167
v 0.164914 0.384840 -0.152167
v 0.164914 0.528128 -0.152167
v 0.179766 0.528128 -0.132501
v 0.179766 0.384840 0.306099
v 0.179766 0.528128 0.306099
v 0.179766 0.384840 -0.132501
v 0.164914 0.369988 -0.126822
v 0.021626 0.369988 0.300420
v 0.021626 0.369988 -0.126822
v 0.164914 0.369988 0.300420
v 0.164914 0.542980 0.300420
v 0.021626 0.542980 -0.126822
v 0.021626 0.542980 0.300420
v 0.164914 0.542980 -0.126822
v 0.006775 0.542980 -0.149218
vt 0.375000 0.000000
vt 0.625000 0.000000
vt 0.603537 0.021463
vt 0.396463 0.021463
vt 0.375000 0.250000
vt 0.396463 0.228537
vt 0.396463 0.271463
vt 0.625000 0.250000
vt 0.603537 0.271463
vt 0.375000 0.500000
vt 0.396463 0.478537
vt 0.396463 0.521463
vt 0.625000 0.500000
vt 0.603537 0.521463
vt 0.396463 0.728537
vt 0.375000 0.750000
vt 0.396463 0.771463
vt 0.625000 0.750000
vt 0.603537 0.771463
vt 0.396463 0.978537
vt 0.375000 1.000000
vt 0.146463 0.728537
vt 0.125000 0.750000
vt 0.125000 0.500000
vt 0.146463 0.521463
vt 0.353537 0.728537
vt 0.875000 0.500000
vt 0.875000 0.750000
vt 0.853537 0.728537
vt 0.853537 0.521463
vt 0.626543 0.500000
vt 0.646463 0.521463
vt 0.646463 0.728537
vt 0.603537 0.978537
vt 0.625000 1.000000
vt 0.603537 0.728537
vt 0.603537 0.478537
vt 0.603537 0.228537
vt 0.353537 0.521463
vn 0.0000 0.0000 1.0000
vn -1.0000 -0.0000 -0.0000
vn -0.0988 0.0093 -0.9951
vn 0.0000 0.0000 -1.0000
vn 1.0000 0.0000 0.0000
vn 0.0000 -1.0000 -0.0000
vn 0.0000 1.0000 0.0000
vn -0.0093 0.0988 -0.9951
usemtl Material.003
s off
f 49/67/19 50/68/19 56/69/19 57/70/19
f 51/71/19 49/67/19 57/70/19 58/72/19
f 60/73/20 51/71/20 52/74/20 61/75/20
f 55/76/20 51/71/20 60/73/20 62/77/20
f 64/78/21 55/76/21 80/79/21 65/80/21
f 66/81/22 53/82/22 55/76/22 64/78/22
f 71/83/23 53/82/23 54/84/23 68/85/23
f 69/86/23 49/87/23 53/82/23 71/83/23
f 75/88/24 49/89/24 51/90/24 73/91/24
f 53/82/24 49/89/24 75/88/24 72/92/24
f 52/93/25 50/94/25 76/95/25 78/96/25
f 54/84/25 80/97/25 77/98/25 79/99/25
f 76/95/25 50/94/25 54/84/25 79/99/25
f 77/98/25 80/97/25 52/93/25 78/96/25
f 70/100/23 50/101/23 49/87/23 69/86/23
f 68/85/23 54/84/23 50/101/23 70/100/23
f 67/102/22 54/84/22 53/82/22 66/81/22
f 65/80/26 80/79/26 54/84/26 67/102/26
f 63/103/20 80/79/20 55/76/20 62/77/20
f 61/75/20 52/74/20 80/79/20 63/103/20
f 59/104/19 52/74/19 51/71/19 58/72/19
f 56/69/19 50/68/19 52/74/19 59/104/19
f 73/91/24 51/90/24 55/76/24 74/105/24
f 74/105/24 55/76/24 53/82/24 72/92/24
o Cube.005_Cube.010
v 0.005599 0.987336 0.324034
v 0.005599 0.987336 0.154469
v -0.163966 0.987336 0.324034
v -0.163966 0.987336 0.154469
v 0.005599 0.376625 0.324034
v 0.005599 0.376625 0.154469
v -0.163966 0.376625 0.324034
v -0.163966 0.376625 0.154469
vt 0.375000 0.000000
vt 0.625000 0.000000
vt 0.625000 0.250000
vt 0.375000 0.250000
vt 0.625000 0.500000
vt 0.375000 0.500000
vt 0.625000 0.750000
vt 0.375000 0.750000
vt 0.625000 1.000000
vt 0.375000 1.000000
vt 0.125000 0.500000
vt 0.125000 0.750000
vt 0.875000 0.500000
vt 0.875000 0.750000
vn 0.0000 1.0000 -0.0000
vn -1.0000 -0.0000 -0.0000
vn 0.0000 -1.0000 -0.0000
vn 1.0000 0.0000 0.0000
vn -0.0000 -0.0000 1.0000
vn 0.0000 0.0000 -1.0000
usemtl None
s off
f 81/106/27 82/107/27 84/108/27 83/109/27
f 83/109/28 84/108/28 88/110/28 87/111/28
f 87/111/29 88/110/29 86/112/29 85/113/29
f 85/113/30 86/112/30 82/114/30 81/115/30
f 83/116/31 87/111/31 85/113/31 81/117/31
f 88/110/32 84/118/32 82/119/32 86/112/32
o Cube.006_Cube.011
v 0.007312 0.993506 0.325747
v 0.007312 0.993506 0.152756
v -0.165679 0.993506 0.325747
v -0.165679 0.993506 0.152756
v 0.007312 0.370455 0.325747
v 0.007312 0.370455 0.152756
v -0.165679 0.370455 0.325747
v -0.165679 0.370455 0.152756
v -0.007540 0.993506 0.167607
v -0.007540 0.993506 0.310896
v -0.150828 0.993506 0.310896
v -0.150828 0.993506 0.167607
v -0.165679 0.959975 0.305878
v -0.165679 0.959975 0.172625
v -0.165679 0.416115 0.305878
v -0.165679 0.416115 0.172625
v -0.150828 0.370455 0.310896
v -0.150828 0.370455 0.167607
v -0.007540 0.370455 0.310896
v -0.007540 0.370455 0.167607
v 0.007312 0.416115 0.172625
v 0.007312 0.959975 0.305878
v 0.007312 0.959975 0.172625
v 0.007312 0.416115 0.305878
v -0.007540 0.398644 0.325747
v -0.150828 0.960465 0.325747
v -0.150828 0.398644 0.325747
v -0.007540 0.960465 0.325747
v -0.007540 0.960465 0.152756
v -0.150828 0.398644 0.152756
v -0.150828 0.960465 0.152756
v -0.007540 0.398644 0.152756
vt 0.375000 0.000000
vt 0.625000 0.000000
vt 0.603537 0.021463
vt 0.396463 0.021463
vt 0.375000 0.250000
vt 0.396463 0.228537
vt 0.396463 0.271463
vt 0.625000 0.250000
vt 0.603537 0.271463
vt 0.375000 0.500000
vt 0.396463 0.478537
vt 0.396463 0.521463
vt 0.625000 0.500000
vt 0.603537 0.521463
vt 0.396463 0.728537
vt 0.375000 0.750000
vt 0.396463 0.771463
vt 0.625000 0.750000
vt 0.603537 0.771463
vt 0.396463 0.978537
vt 0.375000 1.000000
vt 0.146463 0.728537
vt 0.125000 0.750000
vt 0.125000 0.500000
vt 0.146463 0.521463
vt 0.353537 0.728537
vt 0.875000 0.500000
vt 0.875000 0.750000
vt 0.853537 0.728537
vt 0.853537 0.521463
vt 0.646463 0.521463
vt 0.646463 0.728537
vt 0.603537 0.978537
vt 0.625000 1.000000
vt 0.603537 0.228537
vt 0.603537 0.478537
vt 0.603537 0.728537
vt 0.353537 0.521463
vn 0.0000 1.0000 -0.0000
vn -1.0000 -0.0000 -0.0000
vn 0.0000 -1.0000 0.0000
vn 1.0000 0.0000 0.0000
vn -0.0000 -0.0000 1.0000
vn 0.0000 -0.0000 -1.0000
usemtl Material.003
s off
f 89/120/33 90/121/33 97/122/33 98/123/33
f 91/124/33 89/120/33 98/123/33 99/125/33
f 101/126/34 91/124/34 92/127/34 102/128/34
f 95/129/34 91/124/34 101/126/34 103/130/34
f 105/131/35 95/129/35 96/132/35 106/133/35
f 107/134/35 93/135/35 95/129/35 105/131/35
f 112/136/36 93/135/36 94/137/36 109/138/36
f 110/139/36 89/140/36 93/135/36 112/136/36
f 116/141/37 89/142/37 91/143/37 114/144/37
f 93/135/37 89/142/37 116/141/37 113/145/37
f 92/146/38 90/147/38 117/148/38 119/149/38
f 94/137/38 96/132/38 118/150/38 120/151/38
f 117/148/38 90/147/38 94/137/38 120/151/38
f 118/150/38 96/132/38 92/146/38 119/149/38
f 111/152/36 90/153/36 89/140/36 110/139/36
f 109/138/36 94/137/36 90/153/36 111/152/36
f 100/154/33 92/127/33 91/124/33 99/125/33
f 97/122/33 90/121/33 92/127/33 100/154/33
f 102/128/34 92/127/34 96/132/34 104/155/34
f 104/155/34 96/132/34 95/129/34 103/130/34
f 108/156/35 94/137/35 93/135/35 107/134/35
f 106/133/35 96/132/35 94/137/35 108/156/35
f 114/144/37 91/143/37 95/129/37 115/157/37
f 115/157/37 95/129/37 93/135/37 113/145/37
