# Blender v3.0.0 OBJ File: 'tensorflow.blend'
# www.blender.org
mtllib tensorflow.mtl
o Cube
v -0.150730 0.265980 0.198799
v -0.150730 0.996291 0.198799
v -0.150730 0.265980 0.051633
v -0.150730 0.996291 0.051633
v -0.003564 0.265980 0.198799
v -0.003564 0.996291 0.198799
v -0.003564 0.265980 0.051633
v -0.003564 0.996291 0.051633
v -0.150730 0.860028 0.198799
v -0.150730 0.860028 0.051633
v -0.003564 0.860028 0.051633
v -0.003564 0.860028 0.198799
v 0.354868 0.996291 0.051633
v 0.354868 0.996291 0.198799
v 0.354868 0.860028 0.051633
v 0.354868 0.860028 0.198799
v -0.299486 0.860028 0.198799
v -0.299486 0.996291 0.198799
v -0.299486 0.996291 0.051633
v -0.299486 0.860028 0.051633
v -0.150730 0.996291 -0.308162
v -0.150730 0.860028 -0.308162
v -0.299486 0.996291 -0.308162
v -0.299486 0.860028 -0.308162
v -0.150730 0.539505 0.051633
v -0.003564 0.539505 0.051633
v -0.003564 0.539505 0.198799
v -0.150730 0.539505 0.198799
v -0.150730 0.695938 0.198799
v -0.150730 0.695938 0.051633
v -0.003564 0.695938 0.051633
v -0.003564 0.695938 0.198799
v -0.150730 0.695938 -0.113246
v -0.150730 0.539505 -0.113246
v -0.003564 0.695938 -0.113246
v -0.003564 0.539505 -0.113246
vt 0.578354 1.000000
vt 0.625000 1.000000
vt 0.625000 1.000000
vt 0.578354 1.000000
vt 0.578354 0.250000
vt 0.625000 0.250000
vt 0.625000 0.500000
vt 0.578354 0.500000
vt 0.625000 0.500000
vt 0.578354 0.500000
vt 0.578354 0.750000
vt 0.625000 0.750000
vt 0.125000 0.500000
vt 0.375000 0.500000
vt 0.375000 0.750000
vt 0.125000 0.750000
vt 0.875000 0.500000
vt 0.875000 0.750000
vt 0.522183 0.750000
vt 0.522183 1.000000
vt 0.522183 0.500000
vt 0.522183 0.250000
vt 0.522183 0.000000
vt 0.578354 0.000000
vt 0.625000 0.750000
vt 0.578354 0.750000
vt 0.578354 0.000000
vt 0.625000 0.000000
vt 0.625000 0.250000
vt 0.578354 0.250000
vt 0.875000 0.500000
vt 0.875000 0.750000
vt 0.578354 0.250000
vt 0.578354 0.250000
vt 0.625000 0.250000
vt 0.625000 0.250000
vt 0.875000 0.500000
vt 0.875000 0.500000
vt 0.375000 0.000000
vt 0.468633 0.000000
vt 0.468633 0.250000
vt 0.375000 0.250000
vt 0.468633 0.500000
vt 0.468633 0.750000
vt 0.468633 1.000000
vt 0.375000 1.000000
vt 0.468633 0.500000
vt 0.522183 0.500000
vt 0.468633 0.250000
vt 0.522183 0.250000
vn 0.0000 0.0000 1.0000
vn 0.0000 0.0000 -1.0000
vn 0.0000 -1.0000 0.0000
vn 0.0000 1.0000 0.0000
vn 1.0000 0.0000 0.0000
vn -1.0000 0.0000 0.0000
usemtl Material.001
s off
f 9/1/1 2/2/1 18/3/1 17/4/1
f 10/5/2 4/6/2 8/7/2 11/8/2
f 11/8/2 8/7/2 13/9/2 15/10/2
f 12/11/1 6/12/1 2/2/1 9/1/1
f 3/13/3 7/14/3 5/15/3 1/16/3
f 8/7/4 4/17/4 2/18/4 6/12/4
f 32/19/1 12/11/1 9/1/1 29/20/1
f 31/21/5 11/8/5 12/11/5 32/19/5
f 30/22/2 10/5/2 11/8/2 31/21/2
f 29/23/6 9/24/6 10/5/6 30/22/6
f 15/10/5 13/9/5 14/25/5 16/26/5
f 8/7/4 6/12/4 14/25/4 13/9/4
f 12/11/3 11/8/3 15/10/3 16/26/3
f 6/12/1 12/11/1 16/26/1 14/25/1
f 17/27/6 18/28/6 19/29/6 20/30/6
f 10/5/3 9/24/3 17/27/3 20/30/3
f 2/18/4 4/17/4 19/31/4 18/32/4
f 10/5/3 20/30/3 24/33/3 22/34/3
f 21/35/2 22/34/2 24/33/2 23/36/2
f 20/30/6 19/29/6 23/36/6 24/33/6
f 4/6/5 10/5/5 22/34/5 21/35/5
f 19/31/4 4/17/4 21/37/4 23/38/4
f 1/39/6 28/40/6 25/41/6 3/42/6
f 3/42/2 25/41/2 26/43/2 7/14/2
f 7/14/5 26/43/5 27/44/5 5/15/5
f 5/15/1 27/44/1 28/45/1 1/46/1
f 28/40/6 29/23/6 30/22/6 25/41/6
f 31/21/5 26/43/5 36/47/5 35/48/5
f 26/43/5 31/21/5 32/19/5 27/44/5
f 27/44/1 32/19/1 29/20/1 28/45/1
f 34/49/2 33/50/2 35/48/2 36/47/2
f 30/22/4 31/21/4 35/48/4 33/50/4
f 25/41/6 30/22/6 33/50/6 34/49/6
f 26/43/3 25/41/3 34/49/3 36/47/3
