# Blender v3.0.0 OBJ File: 'threejs.blend'
# www.blender.org
mtllib threejs.mtl
o Circle.001_Circle.002
v -0.097034 1.137130 0.140905
v -0.080215 1.140920 0.143397
v 0.061069 0.401402 0.192533
v 0.077888 0.405192 0.195025
v 0.082894 0.745685 -0.478251
v 0.099713 0.749474 -0.475759
v -0.052052 1.039269 -0.013884
v -0.035233 1.043058 -0.011392
v -0.007070 0.941408 -0.168673
v 0.009749 0.945197 -0.166181
v 0.037912 0.843546 -0.323462
v 0.054731 0.847335 -0.320970
v -0.057508 0.953198 0.153812
v -0.040690 0.956988 0.156304
v -0.017983 0.769266 0.166719
v -0.001164 0.773056 0.169211
v 0.021543 0.585335 0.179626
v 0.038362 0.589124 0.182118
v 0.066525 0.487473 0.024837
v 0.083344 0.491262 0.027329
v 0.026999 0.671405 0.011930
v 0.043818 0.675194 0.014422
v 0.071982 0.573544 -0.142859
v 0.088800 0.577333 -0.140367
v 0.077438 0.659614 -0.310555
v 0.094257 0.663403 -0.308063
v 0.032456 0.757476 -0.155766
v 0.049274 0.761265 -0.153274
v -0.012526 0.855337 -0.000977
v 0.004293 0.859126 0.001515
v 0.067661 0.417697 0.184147
v 0.071295 0.388897 0.203411
v 0.077188 0.481853 0.022300
v 0.072245 0.489996 0.043282
v 0.034460 0.572200 0.173305
v 0.028608 0.587543 0.189472
v -0.050916 0.969493 0.145426
v -0.046333 1.041792 0.004561
v -0.044551 1.048364 -0.017454
v -0.093132 1.154054 0.149718
v -0.084118 1.123996 0.134584
v -0.050444 0.955407 0.163657
v -0.011390 0.785561 0.158333
v -0.006807 0.857860 0.017468
v -0.044592 0.940064 0.147491
v -0.010918 0.771475 0.176565
v 0.028136 0.601629 0.171240
v 0.032719 0.673928 0.030375
v -0.005066 0.756132 0.160398
v 0.032643 0.586600 0.163673
v 0.070428 0.504397 0.033650
v 0.037226 0.658899 0.022808
v 0.038099 0.672671 -0.004023
v 0.075884 0.590467 -0.134046
v 0.042682 0.744970 -0.144888
v -0.006883 0.770532 0.150766
v 0.030902 0.688329 0.020743
v -0.002300 0.842831 0.009901
v -0.001427 0.856603 -0.016930
v 0.036358 0.774399 -0.146953
v 0.003156 0.928902 -0.157795
v -0.046409 0.954464 0.137859
v -0.008624 0.872261 0.007836
v -0.041826 1.026763 -0.003006
v 0.043555 0.758741 -0.171719
v 0.081340 0.676538 -0.301742
v 0.048139 0.831041 -0.312584
v 0.050829 0.830412 -0.329783
v 0.084030 0.675909 -0.318941
v 0.088101 0.653994 -0.313092
v 0.093994 0.746950 -0.494204
v 0.088614 0.748208 -0.459806
v 0.045413 0.852641 -0.327032
v 0.045372 0.744341 -0.162087
v 0.078574 0.589838 -0.151245
v 0.082645 0.567924 -0.145396
v 0.083157 0.662137 -0.292110
v 0.005847 0.928273 -0.174994
v 0.039048 0.773770 -0.164152
v 0.043631 0.846070 -0.305017
v 0.000431 0.950502 -0.172243
v 0.039916 0.658271 0.005609
v 0.073118 0.503768 0.016451
v 0.077701 0.576067 -0.124414
v 0.000390 0.842203 -0.007298
v 0.033592 0.687700 0.003544
v 0.038175 0.759999 -0.137321
v -0.039136 1.026135 -0.020205
v -0.005934 0.871632 -0.009363
v -0.001351 0.943931 -0.150228
vt 0.000000 0.000000
vt 0.000000 0.000000
vt 0.000000 0.000000
vt 0.000000 0.000000
vt 0.000000 0.000000
vt 0.000000 0.000000
vt 0.000000 0.000000
vt 0.000000 0.000000
vt 0.000000 0.000000
vt 0.000000 0.000000
vt 0.000000 0.000000
vt 0.000000 0.000000
vt 0.000000 0.000000
vt 0.000000 0.000000
vt 0.000000 0.000000
vt 0.000000 0.000000
vt 0.000000 0.000000
vt 0.000000 0.000000
vt 0.000000 0.000000
vt 0.000000 0.000000
vt 0.000000 0.000000
vt 0.000000 0.000000
vt 0.000000 0.000000
vt 0.000000 0.000000
vt 0.000000 0.000000
vt 0.000000 0.000000
vt 0.000000 0.000000
vt 0.000000 0.000000
vt 0.000000 0.000000
vt 0.000000 0.000000
vt 0.000000 0.000000
vt 0.000000 0.000000
vt 0.000000 0.000000
vt 0.000000 0.000000
vt 0.000000 0.000000
vt 0.000000 0.000000
vt 0.000000 0.000000
vt 0.000000 0.000000
vt 0.000000 0.000000
vt 0.000000 0.000000
vt 0.000000 0.000000
vt 0.000000 0.000000
vt 0.000000 0.000000
vt 0.000000 0.000000
vt 0.000000 0.000000
vt 0.000000 0.000000
vt 0.000000 0.000000
vt 0.000000 0.000000
vt 0.000000 0.000000
vt 0.000000 0.000000
vt 0.000000 0.000000
vt 0.000000 0.000000
vt 0.000000 0.000000
vt 0.000000 0.000000
vt 0.000000 0.000000
vt 0.000000 0.000000
vt 0.000000 0.000000
vt 0.000000 0.000000
vt 0.000000 0.000000
vt 0.000000 0.000000
vt 0.000000 0.000000
vt 0.000000 0.000000
vt 0.000000 0.000000
vt 0.000000 0.000000
vt 0.000000 0.000000
vt 0.000000 0.000000
vt 0.000000 0.000000
vt 0.000000 0.000000
vt 0.000000 0.000000
vt 0.000000 0.000000
vt 0.000000 0.000000
vt 0.000000 0.000000
vt 0.000000 0.000000
vt 0.000000 0.000000
vt 0.000000 0.000000
vt 0.000000 0.000000
vt 0.000000 0.000000
vt 0.000000 0.000000
vt 0.000000 0.000000
vt 0.000000 0.000000
vt 0.000000 0.000000
vt 0.000000 0.000000
vt 0.000000 0.000000
vt 0.000000 0.000000
vt 0.000000 0.000000
vt 0.000000 0.000000
vt 0.000000 0.000000
vt 0.000000 0.000000
vt 0.000000 0.000000
vt 0.000000 0.000000
vn -0.8657 0.4563 0.2060
vn 0.4998 0.7639 0.4083
vn -0.4998 -0.7639 -0.4083
vn 0.8657 -0.4563 -0.2060
vn -0.6090 -0.7383 0.2898
vn 0.7565 -0.4307 0.4921
vn -0.5735 -0.1793 -0.7993
vn 0.7919 0.1283 -0.5970
vn -0.7919 -0.1283 0.5970
vn 0.5735 0.1793 0.7993
vn -0.8657 0.4562 0.2060
vn -0.7565 0.4307 -0.4921
vn 0.6090 0.7383 -0.2898
vn 0.7565 -0.4307 0.4922
vn 0.8657 -0.4562 -0.2060
vn -0.7565 0.4307 -0.4922
usemtl Material.001
s off
f 31/1/1 34/2/1 19/3/1 3/4/1
f 34/2/2 31/1/2 4/5/2 20/6/2
f 33/7/3 32/8/3 3/4/3 19/3/3
f 32/8/4 33/7/4 20/6/4 4/5/4
f 34/2/5 35/9/5 17/10/5 19/3/5
f 35/9/6 34/2/6 20/6/6 18/11/6
f 35/9/7 31/1/7 3/4/7 17/10/7
f 31/1/8 35/9/8 18/11/8 4/5/8
f 32/8/9 36/12/9 17/10/9 3/4/9
f 36/12/10 32/8/10 4/5/10 18/11/10
f 37/13/11 38/14/11 7/15/11 13/16/11
f 38/14/2 37/13/2 14/17/2 8/18/2
f 38/14/5 41/19/5 1/20/5 7/15/5
f 41/19/6 38/14/6 8/18/6 2/21/6
f 40/22/12 39/23/12 7/15/12 1/20/12
f 39/23/13 40/22/13 2/21/13 8/18/13
f 41/19/7 37/13/7 13/16/7 1/20/7
f 37/13/8 41/19/8 2/21/8 14/17/8
f 42/24/9 40/22/9 1/20/9 13/16/9
f 40/22/10 42/24/10 14/17/10 2/21/10
f 43/25/1 44/26/1 29/27/1 15/28/1
f 44/26/2 43/25/2 16/29/2 30/30/2
f 44/26/5 45/31/5 13/16/5 29/27/5
f 45/31/14 44/26/14 30/30/14 14/17/14
f 45/31/7 43/25/7 15/28/7 13/16/7
f 43/25/8 45/31/8 14/17/8 16/29/8
f 46/32/9 42/24/9 13/16/9 15/28/9
f 42/24/10 46/32/10 16/29/10 14/17/10
f 47/33/11 48/34/11 21/35/11 17/10/11
f 48/34/2 47/33/2 18/11/2 22/36/2
f 48/34/5 49/37/5 15/28/5 21/35/5
f 49/37/14 48/34/14 22/36/14 16/29/14
f 49/37/7 47/33/7 17/10/7 15/28/7
f 47/33/8 49/37/8 16/29/8 18/11/8
f 36/12/9 46/32/9 15/28/9 17/10/9
f 46/32/10 36/12/10 18/11/10 16/29/10
f 50/38/12 51/39/12 19/3/12 17/10/12
f 51/39/13 50/38/13 18/11/13 20/6/13
f 51/39/9 52/40/9 21/35/9 19/3/9
f 52/40/10 51/39/10 20/6/10 22/36/10
f 52/40/3 50/38/3 17/10/3 21/35/3
f 50/38/15 52/40/15 22/36/15 18/11/15
f 53/41/16 54/42/16 23/43/16 21/35/16
f 54/42/13 53/41/13 22/36/13 24/44/13
f 54/42/9 55/45/9 27/46/9 23/43/9
f 55/45/10 54/42/10 24/44/10 28/47/10
f 55/45/3 53/41/3 21/35/3 27/46/3
f 53/41/15 55/45/15 28/47/15 22/36/15
f 56/48/16 57/49/16 21/35/16 15/28/16
f 57/49/13 56/48/13 16/29/13 22/36/13
f 57/49/9 58/50/9 29/27/9 21/35/9
f 58/50/10 57/49/10 22/36/10 30/30/10
f 58/50/3 56/48/3 15/28/3 29/27/3
f 56/48/4 58/50/4 30/30/4 16/29/4
f 59/51/12 60/52/12 27/46/12 29/27/12
f 60/52/13 59/51/13 30/30/13 28/47/13
f 60/52/9 61/53/9 9/54/9 27/46/9
f 61/53/10 60/52/10 28/47/10 10/55/10
f 61/53/3 59/51/3 29/27/3 9/54/3
f 59/51/15 61/53/15 10/55/15 30/30/15
f 62/56/16 63/57/16 29/27/16 13/16/16
f 63/57/13 62/56/13 14/17/13 30/30/13
f 63/57/9 64/58/9 7/15/9 29/27/9
f 64/58/10 63/57/10 30/30/10 8/18/10
f 64/58/3 62/56/3 13/16/3 7/15/3
f 62/56/15 64/58/15 8/18/15 14/17/15
f 65/59/12 66/60/12 25/61/12 27/46/12
f 66/60/13 65/59/13 28/47/13 26/62/13
f 66/60/9 67/63/9 11/64/9 25/61/9
f 67/63/10 66/60/10 26/62/10 12/65/10
f 67/63/3 65/59/3 27/46/3 11/64/3
f 65/59/15 67/63/15 12/65/15 28/47/15
f 68/66/7 69/67/7 25/61/7 11/64/7
f 69/67/8 68/66/8 12/65/8 26/62/8
f 69/67/1 72/68/1 5/69/1 25/61/1
f 72/68/2 69/67/2 26/62/2 6/70/2
f 71/71/3 70/72/3 25/61/3 5/69/3
f 70/72/4 71/71/4 6/70/4 26/62/4
f 72/68/5 68/66/5 11/64/5 5/69/5
f 68/66/14 72/68/14 6/70/14 12/65/14
f 73/73/16 71/71/16 5/69/16 11/64/16
f 71/71/13 73/73/13 12/65/13 6/70/13
f 74/74/7 75/75/7 23/43/7 27/46/7
f 75/75/8 74/74/8 28/47/8 24/44/8
f 75/75/1 77/76/1 25/61/1 23/43/1
f 77/76/2 75/75/2 24/44/2 26/62/2
f 70/72/3 76/77/3 23/43/3 25/61/3
f 76/77/4 70/72/4 26/62/4 24/44/4
f 77/76/5 74/74/5 27/46/5 25/61/5
f 74/74/6 77/76/6 26/62/6 28/47/6
f 78/78/7 79/79/7 27/46/7 9/54/7
f 79/79/8 78/78/8 10/55/8 28/47/8
f 79/79/11 80/80/11 11/64/11 27/46/11
f 80/80/2 79/79/2 28/47/2 12/65/2
f 80/80/5 78/78/5 9/54/5 11/64/5
f 78/78/14 80/80/14 12/65/14 10/55/14
f 81/81/12 73/73/12 11/64/12 9/54/12
f 73/73/13 81/81/13 10/55/13 12/65/13
f 82/82/7 83/83/7 19/3/7 21/35/7
f 83/83/8 82/82/8 22/36/8 20/6/8
f 83/83/1 84/84/1 23/43/1 19/3/1
f 84/84/2 83/83/2 20/6/2 24/44/2
f 76/77/3 33/7/3 19/3/3 23/43/3
f 33/7/4 76/77/4 24/44/4 20/6/4
f 84/84/5 82/82/5 21/35/5 23/43/5
f 82/82/14 84/84/14 24/44/14 22/36/14
f 85/85/7 86/86/7 21/35/7 29/27/7
f 86/86/8 85/85/8 30/30/8 22/36/8
f 86/86/11 87/87/11 27/46/11 21/35/11
f 87/87/2 86/86/2 22/36/2 28/47/2
f 87/87/5 85/85/5 29/27/5 27/46/5
f 85/85/6 87/87/6 28/47/6 30/30/6
f 88/88/7 89/89/7 29/27/7 7/15/7
f 89/89/8 88/88/8 8/18/8 30/30/8
f 89/89/11 90/90/11 9/54/11 29/27/11
f 90/90/2 89/89/2 30/30/2 10/55/2
f 90/90/5 88/88/5 7/15/5 9/54/5
f 88/88/6 90/90/6 10/55/6 8/18/6
f 39/23/12 81/81/12 9/54/12 7/15/12
f 81/81/13 39/23/13 8/18/13 10/55/13
