# Blender v3.0.0 OBJ File: 'billboard.blend'
# www.blender.org
mtllib billboard.mtl
o Cube.003_Cube.005
v -1.565366 0.997832 -0.215698
v -1.565366 -0.997832 -0.215698
v 1.565366 0.997832 -0.215698
v 1.565366 -0.997832 -0.215698
v -1.565366 0.997832 0.215698
v -1.565366 -0.997832 0.215698
v 1.565366 0.997832 0.215698
v 1.565366 -0.997832 0.215698
v 1.333009 0.849718 0.215698
v 1.333009 -0.849718 0.215698
v -1.333009 -0.849718 0.215698
v -1.333009 0.849718 0.215698
v -1.333009 0.849718 -0.215698
v 1.333009 -0.849718 -0.215698
v 1.333009 0.849718 -0.215698
v -1.333009 -0.849718 -0.215698
vt 0.875000 0.500000
vt 0.625000 0.750000
vt 0.625000 0.500000
vt 0.375000 1.000000
vt 0.375000 0.750000
vt 0.625000 0.000000
vt 0.625000 0.250000
vt 0.606446 0.018554
vt 0.375000 0.000000
vt 0.393555 0.231446
vt 0.375000 0.250000
vt 0.375000 0.500000
vt 0.125000 0.750000
vt 0.125000 0.500000
vt 0.606446 0.518555
vt 0.393555 0.731446
vt 0.393555 0.518555
vt 0.823464 0.500000
vt 0.676536 0.750000
vt 0.823464 0.750000
vt 0.625000 0.801536
vt 0.375000 0.948464
vt 0.625000 0.948464
vt 0.176536 0.750000
vt 0.323464 0.500000
vt 0.176536 0.500000
vt 0.375000 0.301536
vt 0.625000 0.448464
vt 0.625000 0.301536
vt 0.875000 0.750000
vt 0.625000 1.000000
vt 0.393555 0.018554
vt 0.606446 0.231446
vt 0.606446 0.731445
vt 0.676536 0.500000
vt 0.375000 0.801536
vt 0.323464 0.750000
vt 0.375000 0.448464
vn 0.0000 1.0000 0.0000
vn 1.0000 0.0000 0.0000
vn -0.0000 0.0000 1.0000
vn 0.0000 -1.0000 0.0000
vn 0.0000 0.0000 -1.0000
vn -1.0000 0.0000 0.0000
usemtl Material
s off
f 5/1/1 3/2/1 1/3/1
f 3/2/2 8/4/2 4/5/2
f 7/6/3 5/7/3 9/8/3
f 8/9/3 11/10/3 6/11/3
f 2/12/4 8/13/4 6/14/4
f 1/3/5 3/2/5 13/15/5
f 14/16/5 2/12/5 16/17/5
f 5/7/6 2/12/6 6/11/6
f 12/18/4 15/19/4 9/20/4
f 15/21/6 10/22/6 9/23/6
f 10/24/1 16/25/1 11/26/1
f 11/27/2 13/28/2 12/29/2
f 5/1/1 7/30/1 3/2/1
f 3/2/2 7/31/2 8/4/2
f 10/32/3 8/9/3 7/6/3
f 5/7/3 6/11/3 11/10/3
f 5/7/3 11/10/3 12/33/3
f 9/8/3 10/32/3 7/6/3
f 5/7/3 12/33/3 9/8/3
f 8/9/3 10/32/3 11/10/3
f 2/12/4 4/5/4 8/13/4
f 13/15/5 16/17/5 2/12/5
f 3/2/5 4/5/5 14/16/5
f 3/2/5 14/16/5 15/34/5
f 13/15/5 2/12/5 1/3/5
f 3/2/5 15/34/5 13/15/5
f 14/16/5 4/5/5 2/12/5
f 5/7/6 1/3/6 2/12/6
f 12/18/4 13/35/4 15/19/4
f 15/21/6 14/36/6 10/22/6
f 10/24/1 14/37/1 16/25/1
f 11/27/2 16/38/2 13/28/2
o Cube
v 1.167639 -1.365630 0.046517
v 1.167639 -0.921603 0.046517
v 1.038481 -1.365630 0.046517
v 1.038481 -0.921603 0.046517
v 1.167639 -1.365630 -0.046517
v 1.167639 -0.921603 -0.046517
v 1.038481 -1.365630 -0.046517
v 1.038481 -0.921603 -0.046517
vt 0.625000 0.000000
vt 0.375000 0.250000
vt 0.375000 0.000000
vt 0.625000 0.250000
vt 0.375000 0.500000
vt 0.625000 0.500000
vt 0.375000 0.750000
vt 0.625000 0.750000
vt 0.375000 1.000000
vt 0.125000 0.750000
vt 0.125000 0.500000
vt 0.875000 0.500000
vt 0.625000 1.000000
vt 0.875000 0.750000
vn -0.0000 0.0000 1.0000
vn -1.0000 0.0000 0.0000
vn 0.0000 0.0000 -1.0000
vn 1.0000 0.0000 0.0000
vn 0.0000 -1.0000 0.0000
vn 0.0000 1.0000 0.0000
usemtl None
s off
f 18/39/7 19/40/7 17/41/7
f 20/42/8 23/43/8 19/40/8
f 24/44/9 21/45/9 23/43/9
f 22/46/10 17/47/10 21/45/10
f 23/43/11 17/48/11 19/49/11
f 20/50/12 22/46/12 24/44/12
f 18/39/7 20/42/7 19/40/7
f 20/42/8 24/44/8 23/43/8
f 24/44/9 22/46/9 21/45/9
f 22/46/10 18/51/10 17/47/10
f 23/43/11 21/45/11 17/48/11
f 20/50/12 18/52/12 22/46/12
o Cube.001_Cube.002
v -1.038481 -1.365630 0.046517
v -1.038481 -0.921603 0.046517
v -1.167639 -1.365630 0.046517
v -1.167639 -0.921603 0.046517
v -1.038481 -1.365630 -0.046517
v -1.038481 -0.921603 -0.046517
v -1.167639 -1.365630 -0.046517
v -1.167639 -0.921603 -0.046517
vt 0.625000 0.000000
vt 0.375000 0.250000
vt 0.375000 0.000000
vt 0.625000 0.250000
vt 0.375000 0.500000
vt 0.625000 0.500000
vt 0.375000 0.750000
vt 0.625000 0.750000
vt 0.375000 1.000000
vt 0.125000 0.750000
vt 0.125000 0.500000
vt 0.875000 0.500000
vt 0.625000 1.000000
vt 0.875000 0.750000
vn -0.0000 0.0000 1.0000
vn -1.0000 0.0000 0.0000
vn 0.0000 0.0000 -1.0000
vn 1.0000 0.0000 0.0000
vn 0.0000 -1.0000 0.0000
vn 0.0000 1.0000 0.0000
usemtl Material.001
s off
f 26/53/13 27/54/13 25/55/13
f 28/56/14 31/57/14 27/54/14
f 32/58/15 29/59/15 31/57/15
f 30/60/16 25/61/16 29/59/16
f 31/57/17 25/62/17 27/63/17
f 28/64/18 30/60/18 32/58/18
f 26/53/13 28/56/13 27/54/13
f 28/56/14 32/58/14 31/57/14
f 32/58/15 30/60/15 29/59/15
f 30/60/16 26/65/16 25/61/16
f 31/57/17 29/59/17 25/62/17
f 28/64/18 26/66/18 30/60/18
