# Blender v3.0.0 OBJ File: 'adobe.blend'
# www.blender.org
mtllib adobe.mtl
o Cube_Cube.012
v -0.172299 0.404253 0.281490
v -0.172299 0.918078 0.281490
v -0.172299 0.404253 -0.281490
v -0.172299 0.918078 -0.281490
v 0.172299 0.404253 0.281490
v 0.172299 0.918078 0.281490
v 0.172299 0.404253 -0.281490
v 0.172299 0.918078 -0.281490
vt 0.375000 0.000000
vt 0.625000 0.000000
vt 0.625000 0.250000
vt 0.375000 0.250000
vt 0.625000 0.500000
vt 0.375000 0.500000
vt 0.625000 0.750000
vt 0.375000 0.750000
vt 0.625000 1.000000
vt 0.375000 1.000000
vt 0.125000 0.500000
vt 0.125000 0.750000
vt 0.875000 0.500000
vt 0.875000 0.750000
vn -1.0000 0.0000 0.0000
vn 0.0000 0.0000 -1.0000
vn 1.0000 0.0000 0.0000
vn 0.0000 0.0000 1.0000
vn 0.0000 -1.0000 0.0000
vn 0.0000 1.0000 0.0000
usemtl adobe
s off
f 1/1/1 2/2/1 4/3/1 3/4/1
f 3/4/2 4/3/2 8/5/2 7/6/2
f 7/6/3 8/5/3 6/7/3 5/8/3
f 5/8/4 6/7/4 2/9/4 1/10/4
f 3/11/5 7/6/5 5/8/5 1/12/5
f 8/5/6 4/13/6 2/14/6 6/7/6
o Cube.001_Cube.013
v -0.225972 0.405995 0.280450
v -0.225972 0.917311 0.073699
v -0.225972 0.405995 0.132088
v -0.225972 0.917311 -0.073214
v 0.225972 0.405995 0.280450
v 0.225972 0.917311 0.073699
v 0.225972 0.405995 0.132088
v 0.225972 0.917311 -0.073214
v -0.225972 0.728787 0.000738
v 0.225972 0.728788 0.000738
v -0.225972 0.405995 -0.280264
v 0.225972 0.405995 -0.280264
v -0.225972 0.405995 -0.135593
v 0.225972 0.405995 -0.135593
v 0.225972 0.510207 -0.090174
v -0.225972 0.510208 -0.090172
v -0.246192 0.405995 0.047174
v 0.205752 0.405995 0.047174
v 0.205752 0.510207 0.007691
v -0.246192 0.510208 0.007692
vt 0.375000 0.000000
vt 0.625000 0.000000
vt 0.625000 0.250000
vt 0.526190 0.250000
vt 0.375000 0.250000
vt 0.526190 0.500000
vt 0.375000 0.500000
vt 0.625000 0.500000
vt 0.625000 0.750000
vt 0.375000 0.750000
vt 0.625000 1.000000
vt 0.375000 1.000000
vt 0.125000 0.500000
vt 0.125000 0.750000
vt 0.875000 0.500000
vt 0.875000 0.750000
vt 0.526190 0.500000
vt 0.526190 0.250000
vt 0.625000 0.250000
vt 0.625000 0.500000
vt 0.526190 0.500000
vt 0.875000 0.500000
vt 0.526190 0.250000
vt 0.526190 0.500000
vt 0.526190 0.250000
vt 0.526190 0.250000
vt 0.526190 0.500000
vn -1.0000 -0.0000 0.0000
vn -0.0000 -0.3769 -0.9263
vn 1.0000 0.0000 0.0000
vn 0.0000 0.3749 0.9271
vn 0.0000 -1.0000 -0.0000
vn 0.0000 1.0000 0.0000
vn 0.0000 0.3753 -0.9269
vn 0.0000 -0.3840 0.9233
vn 0.0000 0.3543 0.9351
vn -0.9898 0.0041 -0.1426
vn 0.9898 -0.0041 0.1426
usemtl adobe_white
s off
f 9/15/7 10/16/7 12/17/7 17/18/7 11/19/7
f 11/19/8 17/18/8 18/20/8 15/21/8
f 15/21/9 18/20/9 16/22/9 14/23/9 13/24/9
f 13/24/10 14/23/10 10/25/10 9/26/10
f 11/27/11 15/21/11 13/24/11 9/28/11
f 16/22/12 12/29/12 10/30/12 14/23/12
f 22/31/11 21/32/11 19/33/11 20/34/11
f 16/22/9 18/20/9 23/35/9 22/31/9 20/34/9
f 12/29/13 16/22/13 20/34/13 19/36/13
f 18/20/14 17/18/14 24/37/14 23/35/14
f 17/18/7 12/17/7 19/33/7 21/32/7 24/37/7
f 27/38/15 28/39/15 25/40/15 26/41/15
f 24/37/16 21/32/16 25/40/16 28/39/16
f 21/32/11 22/31/11 26/41/11 25/40/11
f 23/35/12 24/37/12 28/39/12 27/38/12
f 22/31/17 23/35/17 27/38/17 26/41/17
