# Blender v3.0.0 OBJ File: 'blender.blend'
# www.blender.org
mtllib blender.mtl
o Cylinder.003_Cylinder.002
v 0.051980 0.764634 0.050926
v -0.101160 0.738143 0.050947
v -0.093259 0.692565 0.162567
v 0.059881 0.719056 0.162545
v -0.074224 0.582564 0.208784
v 0.078915 0.609055 0.208763
v -0.055204 0.472578 0.162526
v 0.097935 0.499067 0.162504
v -0.047341 0.427033 0.050890
v 0.105798 0.453524 0.050869
v -0.055242 0.472612 -0.060729
v 0.097897 0.499103 -0.060751
v -0.074277 0.582613 -0.106947
v 0.078862 0.609104 -0.106968
v -0.093297 0.692600 -0.060689
v 0.059842 0.719091 -0.060710
vt 1.000000 0.500000
vt 0.875000 1.000000
vt 0.875000 0.500000
vt 0.750000 0.500000
vt 0.625000 1.000000
vt 0.625000 0.500000
vt 0.500000 0.500000
vt 0.500000 1.000000
vt 0.375000 0.500000
vt 0.250000 1.000000
vt 0.250000 0.500000
vt 0.490000 0.250000
vt 0.250000 0.490000
vt 0.010000 0.250000
vt 0.125000 0.500000
vt 0.000000 1.000000
vt 0.000000 0.500000
vt 0.919706 0.419706
vt 0.919706 0.080294
vt 0.580294 0.080294
vt 1.000000 1.000000
vt 0.750000 1.000000
vt 0.375000 1.000000
vt 0.419706 0.419706
vt 0.080294 0.419706
vt 0.080294 0.080294
vt 0.250000 0.010000
vt 0.419706 0.080294
vt 0.125000 1.000000
vt 0.580294 0.419706
vt 0.750000 0.490000
vt 0.990000 0.250000
vt 0.750000 0.010000
vt 0.510000 0.250000
vn -0.1574 0.9103 0.3829
vn -0.0651 0.3769 0.9239
vn 0.0654 -0.3772 0.9238
vn 0.1575 -0.9104 0.3825
vn 0.1574 -0.9103 -0.3829
vn 0.0651 -0.3769 -0.9239
vn 0.0651 -0.3769 -0.9240
vn -0.9854 -0.1705 0.0001
vn -0.0654 0.3772 -0.9238
vn -0.1575 0.9104 -0.3825
vn 0.9854 0.1705 -0.0001
vn -0.0651 0.3769 0.9240
vn -0.9854 -0.1704 0.0001
usemtl Material.006
s 1
f 1/1/1 3/2/1 4/3/1
f 3/2/2 6/4/2 4/3/2
f 6/4/3 7/5/3 8/6/3
f 7/5/4 10/7/4 8/6/4
f 9/8/5 12/9/5 10/7/5
f 12/9/6 13/10/6 14/11/7
f 5/12/8 2/13/8 13/14/8
f 13/10/9 16/15/9 14/11/9
f 16/15/10 2/16/10 1/17/10
f 4/18/11 8/19/11 12/20/11
f 1/1/1 2/21/1 3/2/1
f 3/2/2 5/22/12 6/4/2
f 6/4/3 5/22/3 7/5/3
f 7/5/4 9/8/4 10/7/4
f 9/8/5 11/23/5 12/9/5
f 12/9/6 11/23/6 13/10/6
f 5/12/8 3/24/13 2/13/8
f 2/13/8 15/25/8 13/14/8
f 13/14/8 11/26/13 9/27/8
f 9/27/8 7/28/8 13/14/8
f 7/28/8 5/12/8 13/14/8
f 13/10/9 15/29/9 16/15/9
f 16/15/10 15/29/10 2/16/10
f 16/30/11 1/31/11 4/18/11
f 4/18/11 6/32/11 8/19/11
f 8/19/11 10/33/11 12/20/11
f 12/20/11 14/34/11 16/30/11
f 16/30/11 4/18/11 12/20/11
o Cylinder
v -0.060085 0.579946 -0.311447
v 0.061009 0.600697 -0.311447
v -0.032629 0.419721 -0.264689
v 0.088465 0.440471 -0.264689
v -0.010795 0.292299 -0.135410
v 0.110299 0.313050 -0.135410
v -0.002803 0.245660 0.041189
v 0.118291 0.266410 0.041189
v -0.010795 0.292299 0.217787
v 0.110299 0.313050 0.217787
v -0.032629 0.419721 0.347066
v 0.088465 0.440471 0.347066
v -0.062456 0.593783 0.394385
v 0.058638 0.614533 0.394385
v -0.092282 0.767844 0.347066
v 0.028812 0.788594 0.347066
v -0.114117 0.895266 0.217787
v 0.006977 0.916016 0.217787
v -0.121255 0.936924 0.024904
v -0.000161 0.957675 0.024904
v -0.121230 0.936775 -0.121933
v -0.000136 0.957525 -0.121933
v -0.102620 0.828170 -0.219206
v 0.018474 0.848921 -0.219206
v -0.035232 1.162341 -0.026302
v -0.156326 1.141591 -0.026302
v -0.144336 1.071617 -0.110549
v -0.023242 1.092368 -0.110549
v -0.037448 0.447844 -0.448622
v 0.083646 0.468594 -0.448622
v -0.050401 0.523433 -0.527132
v 0.070693 0.544184 -0.527132
v -0.031214 0.431408 -0.469682
v 0.083239 0.451021 -0.469682
v -0.043456 0.502852 -0.543886
v 0.070997 0.522464 -0.543886
v -0.013636 0.427593 -0.497085
v 0.067935 0.441571 -0.497085
v -0.022362 0.478511 -0.549971
v 0.059210 0.492489 -0.549971
v 0.017089 0.443429 -0.528067
v 0.033690 0.446273 -0.528067
v 0.015314 0.453791 -0.538829
v 0.031914 0.456636 -0.538829
v -0.121230 0.936775 -0.405969
v -0.000136 0.957525 -0.405969
v -0.102620 0.828170 -0.405911
v 0.018474 0.848921 -0.405911
v -0.113634 0.931982 -0.430768
v -0.005703 0.950476 -0.430768
v -0.097046 0.835183 -0.430717
v 0.010885 0.853677 -0.430717
v -0.073736 0.906878 -0.457427
v -0.034966 0.913521 -0.457427
v -0.067778 0.872106 -0.457408
v -0.029007 0.878750 -0.457408
v -0.052401 1.131013 -0.120748
v -0.129706 1.117766 -0.120748
v -0.137361 1.162436 -0.066966
v -0.060056 1.175683 -0.066966
v -0.042369 1.172441 -0.041955
v -0.152959 1.153491 -0.041955
v -0.142009 1.089586 -0.118894
v -0.031419 1.108537 -0.118894
v -0.082481 1.166160 -0.090053
v -0.113045 1.160922 -0.090053
v -0.110018 1.143261 -0.111316
v -0.079454 1.148499 -0.111316
v 0.039236 0.727762 -0.168767
v 0.059616 0.608826 -0.200619
v 0.079956 0.490127 -0.167869
v 0.024124 0.815950 0.160252
v 0.038973 0.729294 0.248828
v 0.079694 0.491659 0.249726
v 0.100185 0.372075 0.041377
v 0.094654 0.404354 0.161806
v 0.018744 0.847345 0.039582
v 0.024276 0.815066 -0.080847
v 0.094805 0.403470 -0.079292
v 0.059313 0.610595 0.281578
v -0.081858 0.707011 -0.168767
v -0.061478 0.588075 -0.200619
v -0.041138 0.469376 -0.167869
v -0.026289 0.382720 -0.079292
v -0.061781 0.589844 0.281578
v -0.041400 0.470908 0.249726
v -0.026440 0.383604 0.161806
v -0.102350 0.826595 0.039582
v -0.096970 0.795200 0.160252
v -0.096818 0.794316 -0.080847
v -0.020909 0.351325 0.041377
v -0.082121 0.708543 0.248828
vt 1.000000 1.000000
vt 0.916667 0.500000
vt 1.000000 0.500000
vt 0.916667 1.000000
vt 0.833333 0.500000
vt 0.833333 1.000000
vt 0.750000 0.500000
vt 0.750000 1.000000
vt 0.666667 0.500000
vt 0.666667 1.000000
vt 0.583333 0.500000
vt 0.583333 1.000000
vt 0.500000 0.500000
vt 0.500000 1.000000
vt 0.416667 0.500000
vt 0.416667 1.000000
vt 0.333333 0.500000
vt 0.250000 0.500000
vt 0.250000 1.000000
vt 0.250000 1.000000
vt 0.166667 0.500000
vt 0.490000 0.250000
vt 0.396413 0.332656
vt 0.418008 0.250473
vt 0.095077 0.250777
vt 0.129350 0.342195
vt 0.010000 0.250000
vt 0.130000 0.457846
vt 0.042154 0.370000
vt 0.042154 0.370000
vt 0.750000 0.490000
vt 0.630000 0.457846
vt 0.750000 0.490000
vt 0.990000 0.250000
vt 0.918008 0.250473
vt 0.896413 0.332656
vt 0.542154 0.130000
vt 0.595077 0.250777
vt 0.613146 0.169004
vt 0.510000 0.250000
vt 0.542154 0.130000
vt 0.510000 0.250000
vt 0.042154 0.130000
vt 0.042154 0.130000
vt 0.333333 1.000000
vt 0.333333 0.500000
vt 0.250000 0.490000
vt 0.130000 0.457846
vt 0.130000 0.457846
vt 1.000000 1.000000
vt 0.250000 0.490000
vt 0.083333 1.000000
vt 0.083333 0.500000
vt 0.083333 0.500000
vt 0.630000 0.457846
vt 0.750000 0.490000
vt 0.750000 0.490000
vt 0.083333 1.000000
vt 0.083333 0.500000
vt 1.000000 0.500000
vt 1.000000 1.000000
vt 1.000000 0.500000
vt 1.000000 1.000000
vt 1.000000 1.000000
vt 1.000000 0.500000
vt 0.250000 0.490000
vt 0.130000 0.457846
vt 0.083333 1.000000
vt 0.083333 0.500000
vt 0.083333 1.000000
vt 0.000000 0.500000
vt 0.083333 0.500000
vt 0.250000 0.490000
vt 0.130000 0.457846
vt 0.083333 1.000000
vt 0.630000 0.457846
vt 0.750000 0.490000
vt 0.130000 0.457846
vt 0.042154 0.370000
vt 0.166667 1.000000
vt 0.166667 0.500000
vt 0.083333 1.000000
vt 0.630000 0.457846
vt 0.542154 0.370000
vt 0.630000 0.457846
vt 0.083333 0.500000
vt 0.083333 1.000000
vt 0.083333 1.000000
vt 0.166667 1.000000
vt 0.166667 0.500000
vt 0.083333 0.500000
vt 0.542154 0.370000
vt 0.630000 0.457846
vt 0.166667 1.000000
vt 0.083333 0.500000
vt 0.166667 0.500000
vt 0.542154 0.370000
vt 0.630000 0.457846
vt 0.130000 0.457846
vt 0.042154 0.370000
vt 0.166667 1.000000
vt 0.510000 0.250000
vt 0.250000 0.500000
vt 0.250000 1.000000
vt 0.333333 1.000000
vt 0.333333 0.500000
vt 0.010000 0.250000
vt 0.042154 0.130000
vt 0.333333 1.000000
vt 0.333333 0.500000
vt 0.042154 0.130000
vt 0.542154 0.130000
vt 0.510000 0.250000
vt 0.250000 1.000000
vt 0.010000 0.250000
vt 0.042154 0.130000
vt 0.333333 1.000000
vt 0.333333 0.500000
vt 0.250000 0.500000
vt 0.250000 1.000000
vt 0.542154 0.130000
vt 0.510000 0.250000
vt 0.333333 1.000000
vt 0.250000 0.500000
vt 0.916667 0.920533
vt 1.000000 0.579467
vt 0.916667 0.579467
vt 0.833333 0.579467
vt 0.833333 0.920533
vt 0.750000 0.579467
vt 0.750000 0.920533
vt 0.666667 0.579467
vt 0.666667 0.920533
vt 0.583333 0.579467
vt 0.583333 0.920533
vt 0.500000 0.579467
vt 0.500000 0.920533
vt 0.416667 0.579467
vt 0.416667 0.920533
vt 0.333333 0.920533
vt 0.333333 0.579467
vt 0.250000 0.920533
vt 0.250000 0.579467
vt 0.166667 0.920533
vt 0.166667 0.579467
vt 0.083333 0.920533
vt 0.083333 0.579467
vt 0.000000 0.920533
vt 0.000000 0.579467
vt 0.250000 0.500000
vt 0.395745 0.168574
vt 0.457846 0.130000
vt 0.457846 0.370000
vt 0.336344 0.393470
vt 0.370000 0.457846
vt 0.188187 0.405501
vt 0.130000 0.042154
vt 0.113146 0.169004
vt 0.250000 0.010000
vt 0.172254 0.109459
vt 0.370000 0.042154
vt 0.253771 0.087203
vt 0.335615 0.108822
vt 0.256373 0.419019
vt 0.836344 0.393470
vt 0.957846 0.370000
vt 0.870000 0.457846
vt 0.895745 0.168574
vt 0.957846 0.130000
vt 0.870000 0.042154
vt 0.835615 0.108822
vt 0.750000 0.010000
vt 0.753771 0.087203
vt 0.630000 0.042154
vt 0.672254 0.109459
vt 0.542154 0.370000
vt 0.629350 0.342195
vt 0.688187 0.405501
vt 0.756373 0.419019
vt 0.010000 0.250000
vt 1.000000 0.500000
vt 0.000000 1.000000
vt 0.250000 0.490000
vt 0.630000 0.457846
vt 0.130000 0.457846
vt 0.010000 0.250000
vt 0.542154 0.130000
vt 1.000000 0.920533
vn 0.0467 -0.2725 -0.9610
vn 0.1194 -0.6969 -0.7071
vn 0.1631 -0.9520 -0.2588
vn 0.1631 -0.9520 0.2588
vn 0.1194 -0.6969 0.7071
vn 0.0437 -0.2551 0.9659
vn -0.0437 0.2551 0.9659
vn -0.1194 0.6969 0.7071
vn 0.1189 -0.6939 -0.7102
vn -0.1689 0.9856 -0.0010
vn 0.9856 0.1689 0.0000
vn -0.9856 -0.1689 -0.0000
vn -0.1180 0.6887 0.7154
vn 0.9930 0.0805 -0.0863
vn 0.1208 -0.7050 0.6989
vn -0.1192 0.6955 -0.7085
vn -0.7399 -0.5414 -0.3992
vn -0.1039 0.6066 -0.7882
vn -0.9632 -0.2547 -0.0863
vn 0.1307 -0.7625 0.6337
vn 0.1601 -0.9342 -0.3188
vn 0.1640 -0.9572 0.2385
vn 0.8780 -0.2642 -0.3992
vn -0.0364 0.2125 -0.9765
vn 0.1208 -0.7051 -0.6988
vn 0.5009 -0.5807 -0.6418
vn 0.0576 -0.3360 -0.9401
vn -0.2789 -0.7144 -0.6418
vn 0.9518 0.1630 -0.2600
vn -0.1689 0.9856 0.0000
vn 0.1689 -0.9856 0.0000
vn 0.1093 -0.6378 -0.7624
vn -0.1641 0.9579 -0.2354
vn 0.1642 -0.9583 -0.2340
vn -0.9517 -0.1632 -0.2600
vn 0.0001 -0.0005 -1.0000
vn -0.5965 -0.1026 -0.7960
vn 0.5966 0.1018 -0.7960
vn -0.1091 0.6369 -0.7631
vn -0.9831 0.0450 -0.1773
vn 0.0733 -0.4279 -0.9009
vn -0.1375 0.8025 0.5805
vn 0.9121 0.3697 -0.1773
vn -0.1640 0.9568 0.2400
vn 0.6846 0.6057 -0.4056
vn -0.8472 0.3432 -0.4056
vn 0.0122 -0.0709 -0.9974
vn 0.2842 0.7570 -0.5883
vn -0.1641 0.9579 -0.2357
vn -0.0671 0.3913 -0.9178
vn -0.5200 0.6192 -0.5883
vn -0.1292 0.7537 -0.6444
vn -0.0443 0.2586 0.9650
vn -0.1199 0.6995 0.7045
vn -0.1633 0.9530 0.2552
vn -0.1630 0.9511 -0.2624
vn -0.1190 0.6943 -0.7097
vn -0.0431 0.2516 -0.9669
vn 0.0443 -0.2586 -0.9650
vn 0.1199 -0.6995 -0.7045
vn 0.1633 -0.9530 -0.2552
vn 0.1630 -0.9511 0.2624
vn 0.1190 -0.6943 0.7097
vn 0.0431 -0.2516 0.9669
vn 0.5009 -0.5808 -0.6418
usemtl Material.002
s off
f 18/35/14 19/36/14 17/37/14
f 20/38/15 21/39/15 19/36/15
f 22/40/16 23/41/16 21/39/16
f 24/42/17 25/43/17 23/41/17
f 26/44/18 27/45/18 25/43/18
f 28/46/19 29/47/19 27/45/19
f 30/48/20 31/49/20 29/47/20
f 32/50/21 33/51/21 31/49/21
f 35/52/22 44/53/22 36/54/22
f 36/54/23 37/55/23 35/52/23
f 24/56/24 95/57/24 91/58/24
f 93/59/24 94/60/24 36/61/24
f 40/62/24 62/63/24 38/64/24
f 17/65/25 47/66/25 45/67/25
f 23/68/25 107/69/25 100/70/25
f 33/71/25 104/72/25 105/73/25
f 35/74/25 42/75/25 43/76/25
f 36/61/24 41/77/24 34/78/24
f 34/79/26 42/80/26 33/51/26
f 46/81/27 52/82/27 48/83/27
f 17/37/28 46/84/28 18/35/28
f 18/85/24 48/83/24 40/62/24
f 40/86/29 47/87/29 39/88/29
f 51/89/30 53/90/30 49/91/30
f 48/92/31 51/93/31 47/87/31
f 47/66/32 49/91/32 45/67/32
f 45/94/33 50/95/33 46/84/33
f 53/96/34 58/97/34 54/98/34
f 49/99/35 54/98/35 50/95/35
f 50/100/36 56/101/36 52/82/36
f 52/102/37 55/103/37 51/93/37
f 60/104/38 57/105/38 59/106/38
f 54/107/39 60/108/39 56/101/39
f 56/109/40 59/106/40 55/103/40
f 55/110/41 57/111/41 53/90/41
f 64/112/42 66/113/42 62/63/42
f 38/114/43 61/115/43 37/55/43
f 39/88/44 64/116/44 40/86/44
f 39/117/25 61/118/25 63/119/25
f 67/120/45 72/121/45 68/122/45
f 62/123/46 65/124/46 61/115/46
f 63/125/47 68/122/47 64/116/47
f 63/119/48 65/126/48 67/127/48
f 70/128/49 71/129/49 69/130/49
f 67/127/50 69/131/50 71/132/50
f 68/133/51 70/134/51 66/113/51
f 66/135/52 69/130/52 65/124/52
f 42/75/53 79/136/53 43/76/53
f 44/53/54 79/137/54 80/138/54
f 41/139/55 78/140/55 42/80/55
f 41/77/56 80/141/56 77/142/56
f 77/143/57 75/144/57 78/140/57
f 80/141/58 76/145/58 77/142/58
f 78/146/59 74/147/59 79/136/59
f 79/137/60 73/148/60 80/138/60
f 73/149/61 81/150/61 76/145/61
f 76/151/62 82/152/62 75/144/62
f 74/153/63 84/154/63 73/148/63
f 75/155/64 83/156/64 74/147/64
f 81/157/65 83/158/65 82/152/65
f 87/159/66 98/160/66 99/161/66
f 87/159/67 100/162/67 95/163/67
f 95/163/68 107/164/68 91/165/68
f 91/165/69 103/166/69 92/167/69
f 92/167/70 102/168/70 90/169/70
f 90/169/71 101/170/71 96/171/71
f 96/171/72 108/172/72 89/173/72
f 88/174/73 108/172/73 105/175/73
f 93/176/74 105/175/74 104/177/74
f 94/178/75 104/177/75 106/179/75
f 85/180/76 106/179/76 97/181/76
f 86/182/77 97/181/77 98/183/77
f 18/35/14 20/38/14 19/36/14
f 20/38/15 22/40/15 21/39/15
f 22/40/16 24/42/16 23/41/16
f 24/42/17 26/44/17 25/43/17
f 26/44/18 28/46/18 27/45/18
f 28/46/19 30/48/19 29/47/19
f 30/48/20 32/50/20 31/49/20
f 32/50/21 34/79/21 33/51/21
f 35/52/22 43/184/22 44/53/22
f 36/54/23 38/114/23 37/55/23
f 92/185/24 26/186/24 24/56/24
f 24/56/24 22/187/24 95/57/24
f 91/58/24 92/185/24 24/56/24
f 87/188/24 95/57/24 22/187/24
f 22/187/24 20/189/24 87/188/24
f 20/189/24 18/85/24 87/188/24
f 18/85/24 40/62/24 85/190/24
f 40/62/24 38/64/24 94/60/24
f 85/190/24 40/62/24 94/60/24
f 38/64/24 36/61/24 94/60/24
f 36/61/24 34/78/24 93/59/24
f 34/78/24 32/191/24 88/192/24
f 32/191/24 30/193/24 89/194/24
f 30/193/24 28/195/24 96/196/24
f 28/195/24 26/186/24 90/197/24
f 96/196/24 28/195/24 90/197/24
f 26/186/24 92/185/24 90/197/24
f 86/198/24 87/188/24 18/85/24
f 30/193/24 96/196/24 89/194/24
f 86/198/24 18/85/24 85/190/24
f 32/191/24 89/194/24 88/192/24
f 34/78/24 88/192/24 93/59/24
f 40/62/24 64/112/24 62/63/24
f 17/65/25 39/117/25 47/66/25
f 100/70/25 99/199/25 21/200/25
f 99/199/25 19/201/25 21/200/25
f 21/200/25 23/68/25 100/70/25
f 107/69/25 23/68/25 103/202/25
f 23/68/25 25/203/25 103/202/25
f 25/203/25 27/204/25 102/205/25
f 27/204/25 29/206/25 101/207/25
f 102/205/25 27/204/25 101/207/25
f 29/206/25 31/208/25 108/209/25
f 31/208/25 33/71/25 105/73/25
f 29/206/25 108/209/25 101/207/25
f 33/71/25 35/74/25 104/72/25
f 35/74/25 37/210/25 106/211/25
f 104/72/25 35/74/25 106/211/25
f 37/210/25 39/117/25 106/211/25
f 39/117/25 17/65/25 97/212/25
f 17/65/25 19/201/25 99/199/25
f 17/65/25 99/199/25 98/213/25
f 102/205/25 103/202/25 25/203/25
f 39/117/25 97/212/25 106/211/25
f 17/65/25 98/213/25 97/212/25
f 108/209/25 31/208/25 105/73/25
f 35/74/25 33/71/25 42/75/25
f 36/61/24 44/214/24 41/77/24
f 34/79/26 41/139/26 42/80/26
f 46/81/27 50/100/27 52/82/27
f 17/37/28 45/94/28 46/84/28
f 18/85/24 46/81/24 48/83/24
f 40/86/29 48/92/29 47/87/29
f 51/89/30 55/110/30 53/90/30
f 48/92/31 52/102/31 51/93/31
f 47/66/32 51/89/32 49/91/32
f 45/94/33 49/99/33 50/95/33
f 53/96/34 57/215/34 58/97/34
f 49/99/35 53/96/35 54/98/35
f 50/100/36 54/107/36 56/101/36
f 52/102/37 56/109/37 55/103/37
f 60/104/38 58/216/38 57/105/38
f 54/107/78 58/217/78 60/108/78
f 56/109/40 60/104/40 59/106/40
f 55/110/41 59/218/41 57/111/41
f 64/112/42 68/133/42 66/113/42
f 38/114/43 62/123/43 61/115/43
f 39/88/44 63/125/44 64/116/44
f 39/117/25 37/210/25 61/118/25
f 67/120/45 71/129/45 72/121/45
f 62/123/46 66/135/46 65/124/46
f 63/125/47 67/120/47 68/122/47
f 63/119/48 61/118/48 65/126/48
f 70/128/49 72/121/49 71/129/49
f 67/127/50 65/126/50 69/131/50
f 68/133/51 72/219/51 70/134/51
f 66/135/52 70/128/52 69/130/52
f 42/75/53 78/146/53 79/136/53
f 44/53/54 43/184/54 79/137/54
f 41/139/55 77/143/55 78/140/55
f 41/77/56 44/214/56 80/141/56
f 77/143/57 76/151/57 75/144/57
f 80/141/58 73/149/58 76/145/58
f 78/146/59 75/155/59 74/147/59
f 79/137/60 74/153/60 73/148/60
f 73/149/61 84/220/61 81/150/61
f 76/151/62 81/157/62 82/152/62
f 74/153/63 83/158/63 84/154/63
f 75/155/64 82/221/64 83/156/64
f 81/157/65 84/154/65 83/158/65
f 87/159/66 86/222/66 98/160/66
f 87/159/67 99/161/67 100/162/67
f 95/163/68 100/162/68 107/164/68
f 91/165/69 107/164/69 103/166/69
f 92/167/70 103/166/70 102/168/70
f 90/169/71 102/168/71 101/170/71
f 96/171/72 101/170/72 108/172/72
f 88/174/73 89/173/73 108/172/73
f 93/176/74 88/174/74 105/175/74
f 94/178/75 93/176/75 104/177/75
f 85/180/76 94/178/76 106/179/76
f 86/182/77 85/180/77 97/181/77
