# Blender v3.0.0 OBJ File: 'blender.blend'
# www.blender.org
mtllib blender.mtl
v 0.000000 0.000000 0.000000
v 0.000000 0.000000 -0.650000
v -0.234807 0.000000 -0.606107
v -0.437902 0.000000 -0.480356
v -0.581856 0.000000 -0.289730
v -0.647227 0.000000 -0.059974
v -0.625187 0.000000 0.177881
v -0.518711 0.000000 0.391713
v -0.342181 0.000000 0.552641
v -0.119437 0.000000 0.638932
v 0.119437 0.000000 0.638932
v 0.342181 0.000000 0.552641
v 0.518711 0.000000 0.391713
v 0.625187 0.000000 0.177881
v 0.647227 0.000000 -0.059974
v 0.581856 0.000000 -0.289730
v 0.437902 0.000000 -0.480356
v 0.234807 0.000000 -0.606107
v 0.000000 0.223018 0.000000
v 0.000000 0.223018 -0.650000
v -0.234807 0.223018 -0.606107
v -0.437902 0.223018 -0.480356
v -0.581856 0.223018 -0.289730
v -0.647227 0.223018 -0.059974
v -0.625187 0.223018 0.177881
v -0.518711 0.223018 0.391713
v -0.342181 0.223018 0.552641
v -0.119437 0.223018 0.638932
v 0.119437 0.223018 0.638932
v 0.342181 0.223018 0.552641
v 0.518711 0.223018 0.391713
v 0.625187 0.223018 0.177881
v 0.647227 0.223018 -0.059974
v 0.581856 0.223018 -0.289730
v 0.437902 0.223018 -0.480356
v 0.234807 0.223018 -0.606107
vt 0.500000 0.500000
vt 0.319379 0.966236
vt 0.500000 1.000000
vt 0.163152 0.869504
vt 0.052418 0.722869
vt 0.002133 0.546134
vt 0.019087 0.363169
vt 0.100991 0.198683
vt 0.236784 0.074891
vt 0.408125 0.008513
vt 0.591875 0.008513
vt 0.763216 0.074891
vt 0.899009 0.198683
vt 0.980913 0.363169
vt 0.997867 0.546134
vt 0.947582 0.722869
vt 0.836848 0.869504
vt 0.680621 0.966236
vt 0.500000 0.500000
vt 0.500000 1.000000
vt 0.319379 0.966236
vt 0.163152 0.869504
vt 0.052418 0.722869
vt 0.002133 0.546134
vt 0.019087 0.363169
vt 0.100991 0.198683
vt 0.236784 0.074891
vt 0.408125 0.008513
vt 0.591875 0.008513
vt 0.763216 0.074891
vt 0.899009 0.198683
vt 0.980913 0.363169
vt 0.997867 0.546134
vt 0.947582 0.722869
vt 0.836848 0.869504
vt 0.680621 0.966236
vn 0.0000 -1.0000 0.0000
vn 0.0000 1.0000 0.0000
vn -0.6737 0.0000 0.7390
vn 0.6737 0.0000 0.7390
vn 0.7980 0.0000 -0.6026
vn -0.9618 0.0000 -0.2737
vn -0.1837 0.0000 -0.9830
vn -0.3612 0.0000 0.9325
vn 0.8952 0.0000 0.4457
vn 0.5264 0.0000 -0.8502
vn -0.9957 0.0000 0.0923
vn 0.0000 0.0000 1.0000
vn 0.9957 0.0000 0.0923
vn -0.5264 0.0000 -0.8502
vn 0.1837 0.0000 -0.9830
vn -0.8952 0.0000 0.4457
vn 0.3612 0.0000 0.9325
vn 0.9618 0.0000 -0.2737
vn -0.7980 0.0000 -0.6026
usemtl None
s off
f 1/1/1 3/2/1 2/3/1
f 1/1/1 4/4/1 3/2/1
f 1/1/1 5/5/1 4/4/1
f 1/1/1 6/6/1 5/5/1
f 1/1/1 7/7/1 6/6/1
f 1/1/1 8/8/1 7/7/1
f 1/1/1 9/9/1 8/8/1
f 1/1/1 10/10/1 9/9/1
f 1/1/1 11/11/1 10/10/1
f 1/1/1 12/12/1 11/11/1
f 1/1/1 13/13/1 12/12/1
f 1/1/1 14/14/1 13/13/1
f 1/1/1 15/15/1 14/14/1
f 1/1/1 16/16/1 15/15/1
f 1/1/1 17/17/1 16/16/1
f 1/1/1 18/18/1 17/17/1
f 1/1/1 2/3/1 18/18/1
f 19/19/2 20/20/2 21/21/2
f 19/19/2 21/21/2 22/22/2
f 19/19/2 22/22/2 23/23/2
f 19/19/2 23/23/2 24/24/2
f 19/19/2 24/24/2 25/25/2
f 19/19/2 25/25/2 26/26/2
f 19/19/2 26/26/2 27/27/2
f 19/19/2 27/27/2 28/28/2
f 19/19/2 28/28/2 29/29/2
f 19/19/2 29/29/2 30/30/2
f 19/19/2 30/30/2 31/31/2
f 19/19/2 31/31/2 32/32/2
f 19/19/2 32/32/2 33/33/2
f 19/19/2 33/33/2 34/34/2
f 19/19/2 34/34/2 35/35/2
f 19/19/2 35/35/2 36/36/2
f 19/19/2 36/36/2 20/20/2
f 9/9/3 26/26/3 8/8/3
f 13/13/4 30/30/4 12/12/4
f 17/17/5 34/34/5 16/16/5
f 6/6/6 23/23/6 5/5/6
f 3/2/7 20/20/7 2/3/7
f 10/10/8 27/27/8 9/9/8
f 14/14/9 31/31/9 13/13/9
f 18/18/10 35/35/10 17/17/10
f 7/7/11 24/24/11 6/6/11
f 11/11/12 28/28/12 10/10/12
f 15/15/13 32/32/13 14/14/13
f 4/4/14 21/21/14 3/2/14
f 2/3/15 36/36/15 18/18/15
f 8/8/16 25/25/16 7/7/16
f 12/12/17 29/29/17 11/11/17
f 16/16/18 33/33/18 15/15/18
f 5/5/19 22/22/19 4/4/19
f 9/9/3 27/27/3 26/26/3
f 13/13/4 31/31/4 30/30/4
f 17/17/5 35/35/5 34/34/5
f 6/6/6 24/24/6 23/23/6
f 3/2/7 21/21/7 20/20/7
f 10/10/8 28/28/8 27/27/8
f 14/14/9 32/32/9 31/31/9
f 18/18/10 36/36/10 35/35/10
f 7/7/11 25/25/11 24/24/11
f 11/11/12 29/29/12 28/28/12
f 15/15/13 33/33/13 32/32/13
f 4/4/14 22/22/14 21/21/14
f 2/3/15 20/20/15 36/36/15
f 8/8/16 26/26/16 25/25/16
f 12/12/17 30/30/17 29/29/17
f 16/16/18 34/34/18 33/33/18
f 5/5/19 23/23/19 22/22/19
v 0.074599 0.684000 0.046631
v -0.058074 0.683790 0.046649
v 0.074675 0.644511 0.141918
v -0.057998 0.644301 0.141936
v 0.074831 0.549209 0.181372
v -0.057842 0.549000 0.181391
v 0.074976 0.453923 0.141883
v -0.057697 0.453713 0.141901
v 0.075025 0.414468 0.046582
v -0.057648 0.414258 0.046600
v 0.074949 0.453957 -0.048705
v -0.057724 0.453748 -0.048687
v 0.074793 0.549258 -0.088160
v -0.057880 0.549049 -0.088141
v 0.074648 0.644545 -0.048671
v -0.058025 0.644335 -0.048652
vt 1.000000 1.000000
vt 0.875000 0.500000
vt 1.000000 0.500000
vt 0.875000 1.000000
vt 0.750000 0.500000
vt 0.750000 1.000000
vt 0.625000 0.500000
vt 0.625000 1.000000
vt 0.500000 0.500000
vt 0.500000 1.000000
vt 0.375000 0.500000
vt 0.375000 1.000000
vt 0.250000 0.500000
vt 0.250000 0.490000
vt 0.010000 0.250000
vt 0.250000 0.010000
vt 0.250000 1.000000
vt 0.125000 0.500000
vt 0.125000 1.000000
vt 0.000000 0.500000
vt 0.919706 0.419706
vt 0.919706 0.080294
vt 0.580294 0.080294
vt 0.490000 0.250000
vt 0.419706 0.419706
vt 0.080294 0.419706
vt 0.080294 0.080294
vt 0.419706 0.080294
vt 0.000000 1.000000
vt 0.580294 0.419706
vt 0.750000 0.490000
vt 0.990000 0.250000
vt 0.750000 0.010000
vt 0.510000 0.250000
vn -0.0014 0.9238 0.3829
vn -0.0005 0.3825 0.9239
vn 0.0007 -0.3829 0.9238
vn 0.0015 -0.9239 0.3825
vn 0.0014 -0.9238 -0.3829
vn 0.0005 -0.3825 -0.9239
vn -1.0000 -0.0016 0.0001
vn -0.0007 0.3829 -0.9238
vn -0.0015 0.9239 -0.3825
vn 1.0000 0.0016 -0.0001
usemtl Material
s off
f 38/37/20 39/38/20 37/39/20
f 40/40/21 41/41/21 39/38/21
f 42/42/22 43/43/22 41/41/22
f 44/44/23 45/45/23 43/43/23
f 46/46/24 47/47/24 45/45/24
f 48/48/25 49/49/25 47/47/25
f 38/50/26 50/51/26 46/52/26
f 50/53/27 51/54/27 49/49/27
f 52/55/28 37/56/28 51/54/28
f 39/57/29 43/58/29 47/59/29
f 38/37/20 40/40/20 39/38/20
f 40/40/21 42/42/21 41/41/21
f 42/42/22 44/44/22 43/43/22
f 44/44/23 46/46/23 45/45/23
f 46/46/24 48/48/24 47/47/24
f 48/48/25 50/53/25 49/49/25
f 42/60/26 40/61/26 38/50/26
f 38/50/26 52/62/26 50/51/26
f 50/51/26 48/63/26 46/52/26
f 46/52/26 44/64/26 42/60/26
f 42/60/26 38/50/26 46/52/26
f 50/53/27 52/55/27 51/54/27
f 52/55/28 38/65/28 37/56/28
f 51/66/29 37/67/29 39/57/29
f 39/57/29 41/68/29 43/58/29
f 43/58/29 45/69/29 47/59/29
f 47/59/29 49/70/29 51/66/29
f 51/66/29 39/57/29 47/59/29
v 0.070329 0.871985 0.037418
v -0.054401 0.871788 0.037435
v 0.070508 0.780133 0.277596
v -0.054222 0.779936 0.277614
v 0.070887 0.549168 0.373216
v -0.053844 0.548971 0.373234
v 0.071238 0.318238 0.277512
v -0.053492 0.318041 0.277530
v 0.071357 0.222619 0.046547
v -0.053373 0.222422 0.046565
v 0.071173 0.318322 -0.184383
v -0.053557 0.318125 -0.184366
v 0.070822 0.532243 -0.280006
v -0.053909 0.532046 -0.279988
v 0.070463 0.766662 -0.193220
v -0.054267 0.766465 -0.193203
v -0.054133 0.717849 0.215504
v -0.054180 0.717910 -0.122194
v -0.053646 0.380212 -0.122256
v -0.053599 0.380151 0.215443
v -0.053923 0.549074 -0.192165
v -0.053856 0.548987 0.285413
v -0.054267 0.787819 0.046668
v -0.053512 0.310242 0.046581
v 0.070463 0.788016 0.046650
v 0.070874 0.549184 0.285396
v 0.071218 0.310439 0.046563
v 0.070807 0.549271 -0.192182
v 0.070550 0.718108 -0.122212
v 0.071131 0.380348 0.215425
v 0.070597 0.718046 0.215487
v 0.071084 0.380409 -0.122273
v 0.070095 1.008175 -0.095511
v -0.054635 1.007978 -0.095493
v 0.070008 1.070633 -0.015288
v -0.054723 1.070436 -0.015270
v -0.005026 1.077303 -0.070744
v 0.020274 1.077343 -0.070748
v -0.005008 1.064634 -0.087016
v 0.020291 1.064674 -0.087020
v -0.005026 1.077303 -0.070744
v 0.020274 1.077343 -0.070748
v -0.005008 1.064634 -0.087016
v 0.020291 1.064674 -0.087020
v 0.050663 1.039783 -0.099787
v -0.035305 1.039647 -0.099775
v 0.050603 1.082831 -0.044495
v -0.035365 1.082695 -0.044483
v 0.020274 1.077343 -0.070748
v -0.005026 1.077303 -0.070744
v 0.020274 1.077343 -0.070748
v -0.005026 1.077303 -0.070744
v 0.090469 0.872233 -0.372698
v -0.034261 0.872035 -0.372681
v -0.034099 0.769167 -0.372853
v 0.090631 0.769365 -0.372870
v 0.084308 0.867190 -0.389478
v -0.028089 0.867012 -0.389463
v -0.027943 0.774316 -0.389617
v 0.084454 0.774494 -0.389633
v 0.065284 0.851481 -0.406994
v -0.009021 0.851364 -0.406983
v -0.008924 0.790083 -0.407086
v 0.065381 0.790200 -0.407096
v 0.041584 0.831894 -0.419157
v 0.014737 0.831852 -0.419153
v 0.014772 0.809711 -0.419190
v 0.041619 0.809753 -0.419194
v 0.050447 0.397380 -0.418862
v 0.050325 0.468143 -0.490766
v -0.074284 0.397183 -0.418844
v -0.074405 0.467945 -0.490748
v 0.043477 0.387493 -0.436504
v 0.043368 0.450332 -0.500357
v -0.067287 0.387318 -0.436489
v -0.067396 0.450157 -0.500342
v 0.028286 0.384772 -0.456397
v 0.028207 0.430373 -0.502734
v -0.052093 0.384645 -0.456386
v -0.052172 0.430246 -0.502722
v 0.000687 0.391832 -0.480704
v 0.000663 0.406135 -0.495238
v -0.024524 0.391792 -0.480701
v -0.024549 0.406095 -0.495235
vt 0.250000 0.490000
vt 0.419706 0.419706
vt 0.250000 0.490000
vt 0.875000 1.000000
vt 0.750000 0.500000
vt 0.875000 0.500000
vt 0.750000 1.000000
vt 0.625000 0.500000
vt 0.625000 1.000000
vt 0.500000 0.500000
vt 0.500000 1.000000
vt 0.375000 0.500000
vt 0.375000 1.000000
vt 0.250000 0.500000
vt 0.080294 0.419706
vt 0.125926 0.374074
vt 0.419706 0.080294
vt 0.490000 0.250000
vt 0.374074 0.125926
vt 0.125000 1.000000
vt 0.125000 0.500000
vt 0.125000 1.000000
vt 0.580294 0.419706
vt 0.750000 0.490000
vt 0.750000 0.490000
vt 0.750000 0.010000
vt 0.625926 0.125926
vt 0.750000 0.074532
vt 0.919706 0.419706
vt 0.750000 0.425468
vt 0.875000 0.915825
vt 1.000000 0.584175
vt 0.875000 0.584175
vt 0.750000 0.584175
vt 0.750000 0.915825
vt 0.625000 0.584175
vt 0.625000 0.915825
vt 0.500000 0.584175
vt 0.500000 0.915825
vt 0.375000 0.584175
vt 0.375000 0.915825
vt 0.250000 0.915825
vt 0.250000 0.584175
vt 0.125000 0.915825
vt 0.125000 0.584175
vt 0.000000 0.915825
vt 0.000000 0.584175
vt 0.919706 0.419706
vt 0.750000 0.490000
vt 0.919706 0.419706
vt 0.000000 1.000000
vt 0.000000 0.500000
vt 0.000000 0.500000
vt 0.875000 0.500000
vt 0.875000 1.000000
vt 0.919706 0.419706
vt 0.875000 1.000000
vt 0.875000 0.500000
vt 0.875000 1.000000
vt 0.000000 0.500000
vt 0.000000 1.000000
vt 0.000000 0.500000
vt 1.000000 1.000000
vt 0.875000 0.500000
vt 1.000000 0.500000
vt 0.250000 0.490000
vt 0.419706 0.419706
vt 0.250000 0.490000
vt 0.000000 1.000000
vt 0.000000 0.500000
vt 0.250000 0.490000
vt 0.750000 0.490000
vt 0.919706 0.419706
vt 0.875000 0.500000
vt 0.875000 1.000000
vt 0.000000 1.000000
vt 0.419706 0.419706
vt 0.750000 0.490000
vt 0.875000 0.500000
vt 0.875000 0.500000
vt 0.875000 1.000000
vt 0.419706 0.419706
vt 0.419706 0.419706
vt 0.919706 0.419706
vt 0.919706 0.419706
vt 0.125000 1.000000
vt 0.125000 0.500000
vt 0.125000 0.500000
vt 0.125000 0.500000
vt 0.000000 1.000000
vt 0.250000 0.490000
vt 0.080294 0.419706
vt 0.580294 0.419706
vt 0.750000 0.490000
vt 0.750000 0.490000
vt 0.000000 0.500000
vt 0.000000 1.000000
vt 0.080294 0.419706
vt 0.125000 0.500000
vt 0.125000 1.000000
vt 0.125000 0.500000
vt 0.250000 0.490000
vt 0.080294 0.419706
vt 0.125000 1.000000
vt 0.000000 0.500000
vt 0.000000 1.000000
vt 0.000000 0.500000
vt 0.000000 0.500000
vt 0.000000 1.000000
vt 0.580294 0.419706
vt 0.750000 0.490000
vt 0.250000 0.490000
vt 0.080294 0.419706
vt 0.125000 0.500000
vt 0.125000 1.000000
vt 0.510000 0.250000
vt 0.580294 0.419706
vt 0.010000 0.250000
vt 0.080294 0.419706
vt 0.010000 0.250000
vt 0.250000 1.000000
vt 0.250000 0.500000
vt 0.080294 0.419706
vt 0.010000 0.250000
vt 0.010000 0.250000
vt 0.250000 1.000000
vt 0.250000 0.500000
vt 0.510000 0.250000
vt 0.580294 0.419706
vt 0.125000 1.000000
vt 0.125000 0.500000
vt 0.125000 1.000000
vt 0.510000 0.250000
vt 0.580294 0.419706
vt 0.125000 0.500000
vt 0.250000 1.000000
vt 0.250000 0.500000
vt 0.250000 0.500000
vt 0.250000 1.000000
vt 0.080294 0.419706
vt 0.010000 0.250000
vt 0.510000 0.250000
vt 0.580294 0.419706
vt 0.419706 0.419706
vt 0.250000 0.425468
vt 0.374074 0.374074
vt 0.080294 0.080294
vt 0.125926 0.125926
vt 0.074532 0.250000
vt 0.250000 0.074532
vt 0.425468 0.250000
vt 0.250000 0.010000
vt 0.580294 0.419706
vt 0.874074 0.125926
vt 0.919706 0.080294
vt 0.580294 0.080294
vt 0.574532 0.250000
vt 0.990000 0.250000
vt 0.925468 0.250000
vt 0.625926 0.374074
vt 0.874075 0.374074
vt 1.000000 0.915825
vt 0.750000 0.490000
vt 0.000000 1.000000
vt 0.875000 1.000000
vt 0.419706 0.419706
vt 0.580294 0.419706
vt 0.125000 1.000000
vt 0.250000 0.490000
vt 0.250000 1.000000
vt 0.080294 0.419706
vt 0.510000 0.250000
vn -1.0000 -0.0016 0.0001
vn -0.0005 0.3825 0.9239
vn 0.0007 -0.3829 0.9238
vn 0.0015 -0.9239 0.3825
vn 0.0014 -0.9238 -0.3829
vn 0.0005 -0.4081 -0.9129
vn -0.0012 0.7060 -0.7082
vn 0.9932 -0.1054 0.0487
vn 1.0000 0.0016 -0.0001
vn 0.0005 -0.3825 -0.9239
vn -0.0007 0.3829 -0.9238
vn -0.0015 0.9239 -0.3825
vn -0.0014 0.9238 0.3829
vn 0.0000 0.0000 1.0000
vn 0.0010 -0.6985 -0.7156
vn -0.0010 0.7100 0.7042
vn -0.0013 0.7891 -0.6143
vn 0.0001 -0.1340 -0.9910
vn -0.8191 0.4522 -0.3530
vn 0.8175 0.4548 -0.3532
vn -0.0014 0.9224 0.3862
vn -0.0008 0.4556 -0.8902
vn -0.3648 0.7345 -0.5722
vn 0.3623 0.7356 -0.5723
vn -0.0016 0.9792 -0.2029
vn 0.0015 -0.9561 -0.2931
vn 0.0016 -0.9999 -0.0149
vn -0.0016 1.0000 0.0005
vn -0.9938 -0.0014 -0.1116
vn 0.6763 0.0023 -0.7366
vn -0.0016 0.9578 -0.2873
vn 0.9385 0.0021 -0.3452
vn -0.9386 -0.0009 -0.3449
vn 0.0007 -0.5255 -0.8508
vn -0.6765 0.0002 -0.7364
vn 0.0011 -0.7429 -0.6694
vn -0.0013 0.7451 -0.6669
vn -0.0001 0.0017 -1.0000
vn -0.0010 0.5284 -0.8490
vn 0.4552 0.0022 -0.8904
vn -0.4554 0.0008 -0.8903
vn -0.0009 0.4744 -0.8803
vn 0.9931 0.0420 -0.1094
vn -0.9945 0.0738 0.0743
vn 0.0012 -0.7174 0.6966
vn -0.7218 -0.4939 -0.4848
vn 0.0014 -0.8726 0.4884
vn -0.9406 -0.2427 -0.2373
vn 0.9413 -0.2397 -0.2375
vn 0.0003 -0.2958 -0.9553
vn 0.7232 -0.4916 -0.4850
vn -0.0003 0.1185 -0.9930
vn 0.0016 -0.9909 0.1344
vn 0.0010 -0.7127 -0.7014
vn 0.0015 -0.9599 -0.2805
vn -0.3977 -0.6543 -0.6432
vn 0.3996 -0.6530 -0.6433
vn 0.9938 0.0014 0.1116
vn -0.9932 0.1054 -0.0487
vn 0.9945 -0.0738 -0.0743
vn -0.9931 -0.0420 0.1094
usemtl Material.001
s off
f 54/71/30 88/72/30 86/73/30
f 56/74/31 57/75/31 55/76/31
f 58/77/32 59/78/32 57/75/32
f 60/79/33 61/80/33 59/78/33
f 62/81/34 63/82/34 61/80/34
f 64/83/35 65/84/35 63/82/35
f 54/71/30 68/85/30 70/86/30
f 60/87/30 58/88/30 72/89/30
f 68/90/36 122/91/36 124/92/36
f 67/93/37 105/94/37 53/95/37
f 61/96/38 84/97/38 79/98/38
f 53/95/38 55/99/38 77/100/38
f 69/101/34 77/102/34 83/103/34
f 69/101/39 78/104/39 74/105/39
f 74/105/40 82/106/40 72/107/40
f 72/107/41 79/108/41 76/109/41
f 76/109/42 84/110/42 71/111/42
f 73/112/31 84/110/31 80/113/31
f 70/114/32 80/113/32 81/115/32
f 75/116/33 81/115/33 77/117/33
f 94/118/43 92/119/43 90/120/43
f 54/121/44 85/122/44 53/123/44
f 56/74/45 87/124/45 88/125/45
f 53/95/38 87/126/38 55/99/38
f 93/127/43 101/128/43 102/129/43
f 96/130/43 91/131/43 92/132/43
f 91/133/46 90/134/46 92/135/46
f 95/136/43 89/137/43 91/138/43
f 86/139/47 97/140/47 85/122/47
f 88/72/48 98/141/48 86/73/48
f 87/126/49 97/142/49 99/143/49
f 88/125/50 99/144/50 100/145/50
f 98/146/51 96/130/51 97/140/51
f 100/147/52 95/136/52 98/141/52
f 99/143/53 96/148/53 94/118/53
f 100/145/54 94/149/54 93/127/54
f 102/129/43 103/150/43 104/151/43
f 89/137/43 102/152/43 104/153/43
f 94/118/43 103/154/43 101/155/43
f 90/134/43 104/151/43 103/150/43
f 107/156/55 112/157/55 108/158/55
f 67/159/56 107/156/56 108/158/56
f 53/123/57 106/160/57 54/121/57
f 68/85/58 106/161/58 107/162/58
f 112/163/59 113/164/59 109/165/59
f 105/166/60 110/167/60 106/160/60
f 105/94/61 112/163/61 109/165/61
f 106/161/62 111/168/62 107/162/62
f 116/169/63 119/170/63 120/171/63
f 110/172/64 115/173/64 111/168/64
f 111/174/65 116/169/65 112/157/65
f 109/175/66 114/176/66 110/167/66
f 119/170/67 117/177/67 120/171/67
f 113/178/68 118/179/68 114/176/68
f 113/164/69 120/180/69 117/181/69
f 114/182/70 119/183/70 115/173/70
f 124/92/71 126/184/71 128/185/71
f 65/186/72 122/187/72 67/93/72
f 66/188/73 124/189/73 123/190/73
f 66/191/74 121/192/74 65/84/74
f 128/193/75 131/194/75 127/195/75
f 123/196/76 125/197/76 121/192/76
f 124/189/77 127/195/77 123/190/77
f 121/198/78 126/199/78 122/187/78
f 132/200/79 134/201/79 136/202/79
f 125/203/80 130/204/80 126/199/80
f 128/185/81 130/205/81 132/200/81
f 127/206/82 129/207/82 125/197/82
f 133/208/83 136/202/83 134/201/83
f 131/209/84 133/208/84 129/207/84
f 132/210/85 135/211/85 131/194/85
f 129/212/86 134/213/86 130/204/86
f 54/71/30 56/214/30 88/72/30
f 56/74/31 58/77/31 57/75/31
f 58/77/32 60/79/32 59/78/32
f 60/79/33 62/81/33 61/80/33
f 62/81/34 64/83/34 63/82/34
f 64/83/35 66/191/35 65/84/35
f 75/215/30 69/216/30 56/214/30
f 66/188/30 64/217/30 71/218/30
f 66/188/30 71/218/30 73/219/30
f 75/215/30 56/214/30 54/71/30
f 66/188/30 73/219/30 68/85/30
f 73/219/30 70/86/30 68/85/30
f 70/86/30 75/215/30 54/71/30
f 76/220/30 71/218/30 64/217/30
f 58/88/30 56/214/30 69/216/30
f 58/88/30 69/216/30 74/221/30
f 76/220/30 64/217/30 62/222/30
f 58/88/30 74/221/30 72/89/30
f 72/89/30 76/220/30 60/87/30
f 76/220/30 62/222/30 60/87/30
f 68/90/36 67/159/36 122/91/36
f 67/93/87 108/223/87 105/94/87
f 82/224/38 59/225/38 61/96/38
f 61/96/38 63/226/38 84/97/38
f 79/98/38 82/224/38 61/96/38
f 80/227/38 84/97/38 65/186/38
f 84/97/38 63/226/38 65/186/38
f 57/228/38 59/225/38 82/224/38
f 57/228/38 82/224/38 78/229/38
f 81/230/38 80/227/38 67/93/38
f 80/227/38 65/186/38 67/93/38
f 55/99/38 57/228/38 78/229/38
f 55/99/38 78/229/38 83/231/38
f 55/99/38 83/231/38 77/100/38
f 77/100/38 81/230/38 53/95/38
f 81/230/38 67/93/38 53/95/38
f 69/101/34 75/232/34 77/102/34
f 69/101/39 83/103/39 78/104/39
f 74/105/40 78/104/40 82/106/40
f 72/107/41 82/106/41 79/108/41
f 76/109/42 79/108/42 84/110/42
f 73/112/31 71/111/31 84/110/31
f 70/114/32 73/112/32 80/113/32
f 75/116/33 70/114/33 81/115/33
f 94/118/43 96/148/43 92/119/43
f 54/121/44 86/139/44 85/122/44
f 56/74/45 55/76/45 87/124/45
f 53/95/38 85/233/38 87/126/38
f 93/127/43 94/149/43 101/128/43
f 96/130/43 95/234/43 91/131/43
f 91/133/46 89/235/46 90/134/46
f 95/136/43 93/236/43 89/137/43
f 86/139/47 98/146/47 97/140/47
f 88/72/48 100/147/48 98/141/48
f 87/126/49 85/233/49 97/142/49
f 88/125/50 87/124/50 99/144/50
f 98/146/51 95/234/51 96/130/51
f 100/147/52 93/236/52 95/136/52
f 99/143/53 97/142/53 96/148/53
f 100/145/54 99/144/54 94/149/54
f 102/129/43 101/128/43 103/150/43
f 89/137/43 93/236/43 102/152/43
f 94/118/43 90/120/43 103/154/43
f 90/134/43 89/235/43 104/151/43
f 107/156/55 111/174/55 112/157/55
f 67/159/56 68/90/56 107/156/56
f 53/123/57 105/166/57 106/160/57
f 68/85/88 54/71/88 106/161/88
f 112/163/59 116/237/59 113/164/59
f 105/166/60 109/175/60 110/167/60
f 105/94/61 108/223/61 112/163/61
f 106/161/62 110/172/62 111/168/62
f 116/169/63 115/238/63 119/170/63
f 110/172/64 114/182/64 115/173/64
f 111/174/65 115/238/65 116/169/65
f 109/175/66 113/178/66 114/176/66
f 119/170/67 118/179/67 117/177/67
f 113/178/68 117/177/68 118/179/68
f 113/164/69 116/237/69 120/180/69
f 114/182/70 118/239/70 119/183/70
f 124/92/71 122/91/71 126/184/71
f 65/186/89 121/198/89 122/187/89
f 66/188/90 68/85/90 124/189/90
f 66/191/74 123/196/74 121/192/74
f 128/193/75 132/210/75 131/194/75
f 123/196/76 127/206/76 125/197/76
f 124/189/77 128/193/77 127/195/77
f 121/198/78 125/203/78 126/199/78
f 132/200/79 130/205/79 134/201/79
f 125/203/80 129/212/80 130/204/80
f 128/185/81 126/184/81 130/205/81
f 127/206/82 131/209/82 129/207/82
f 133/208/83 135/240/83 136/202/83
f 131/209/84 135/240/84 133/208/84
f 132/210/85 136/241/85 135/211/85
f 129/212/86 133/242/86 134/213/86
