# Blender v3.0.0 OBJ File: 'nginx.blend'
# www.blender.org
mtllib nginx.mtl
o Cylinder
v -0.140704 0.557109 -0.344630
v 0.140704 0.557109 -0.344630
v -0.140704 0.348034 0.017499
v 0.140704 0.348034 0.017499
v -0.140704 0.557109 0.379628
v 0.140704 0.557109 0.379628
v -0.140704 0.975259 0.379628
v 0.140704 0.975259 0.379628
v -0.140704 1.184335 0.017499
v 0.140704 1.184335 0.017499
v -0.140704 0.975259 -0.344630
v 0.140704 0.975259 -0.344630
vt 1.000000 0.500000
vt 1.000000 1.000000
vt 0.833333 1.000000
vt 0.833333 0.500000
vt 0.666667 1.000000
vt 0.666667 0.500000
vt 0.500000 1.000000
vt 0.500000 0.500000
vt 0.333333 1.000000
vt 0.333333 0.500000
vt 0.457846 0.370000
vt 0.250000 0.490000
vt 0.042154 0.370000
vt 0.042154 0.130000
vt 0.250000 0.010000
vt 0.457846 0.130000
vt 0.166667 1.000000
vt 0.166667 0.500000
vt -0.000000 1.000000
vt -0.000000 0.500000
vt 0.750000 0.490000
vt 0.957846 0.370000
vt 0.957846 0.130000
vt 0.750000 0.010000
vt 0.542154 0.130000
vt 0.542154 0.370000
vn 0.0000 -0.8660 -0.5000
vn 0.0000 -0.8660 0.5000
vn 0.0000 0.0000 1.0000
vn 0.0000 0.8660 0.5000
vn 1.0000 0.0000 -0.0000
vn 0.0000 0.8660 -0.5000
vn 0.0000 0.0000 -1.0000
vn -1.0000 -0.0000 0.0000
usemtl nginx
s off
f 1/1/1 2/2/1 4/3/1 3/4/1
f 3/4/2 4/3/2 6/5/2 5/6/2
f 5/6/3 6/5/3 8/7/3 7/8/3
f 7/8/4 8/7/4 10/9/4 9/10/4
f 4/11/5 2/12/5 12/13/5 10/14/5 8/15/5 6/16/5
f 9/10/6 10/9/6 12/17/6 11/18/6
f 11/18/7 12/17/7 2/19/7 1/20/7
f 1/21/8 3/22/8 5/23/8 7/24/8 9/25/8 11/26/8
o Cube
v -0.167687 0.619918 0.202421
v -0.167687 0.914887 0.201555
v -0.167687 0.619918 0.120650
v -0.167687 0.826120 0.120867
v 0.167687 0.619918 0.202421
v 0.167687 0.914887 0.201555
v 0.167687 0.619918 0.120650
v 0.167687 0.826120 0.120867
v -0.167687 0.944892 0.181103
v -0.167687 0.941969 0.120874
v 0.167687 0.944892 0.181103
v 0.167687 0.941969 0.120874
v -0.167687 0.591215 -0.081564
v 0.167687 0.591215 -0.081564
v -0.167687 0.702734 -0.083722
v 0.167687 0.702734 -0.083722
v -0.167687 0.584318 -0.133392
v 0.167687 0.584318 -0.133392
v -0.167687 0.616813 -0.168025
v 0.167687 0.616813 -0.168025
v -0.167687 0.915090 -0.085465
v 0.167687 0.915090 -0.085465
v -0.167687 0.914688 -0.169769
v 0.167687 0.914688 -0.169769
v -0.168287 0.944221 -0.109082
v 0.168287 0.944221 -0.109082
v -0.168287 0.944043 -0.146432
v 0.168287 0.944043 -0.146432
v -0.168552 0.592855 0.187781
v -0.168552 0.592855 0.135290
v 0.168552 0.592855 0.187781
v 0.168552 0.592855 0.135290
vt 0.375000 0.000000
vt 0.625000 0.000000
vt 0.625000 0.250000
vt 0.375000 0.250000
vt 0.625000 0.500000
vt 0.375000 0.500000
vt 0.625000 0.750000
vt 0.375000 0.750000
vt 0.625000 1.000000
vt 0.375000 1.000000
vt 0.375000 0.500000
vt 0.375000 0.250000
vt 0.625000 0.500000
vt 0.625000 0.750000
vt 0.875000 0.500000
vt 0.875000 0.750000
vt 0.625000 0.000000
vt 0.625000 0.250000
vt 0.625000 1.000000
vt 0.625000 0.250000
vt 0.625000 0.500000
vt 0.625000 0.250000
vt 0.625000 0.250000
vt 0.625000 0.250000
vt 0.625000 0.500000
vt 0.875000 0.500000
vt 0.625000 0.500000
vt 0.625000 0.500000
vt 0.625000 0.250000
vt 0.625000 0.500000
vt 0.625000 0.250000
vt 0.625000 0.250000
vt 0.625000 0.250000
vt 0.625000 0.500000
vt 0.875000 0.500000
vt 0.875000 0.500000
vt 0.625000 0.500000
vt 0.625000 0.500000
vt 0.875000 0.500000
vt 0.125000 0.500000
vt 0.375000 0.750000
vt 0.125000 0.750000
vt 0.375000 0.000000
vt 0.375000 1.000000
vn -1.0000 0.0000 0.0000
vn 0.0000 0.0011 -1.0000
vn 1.0000 0.0000 0.0000
vn 0.0000 0.0029 1.0000
vn 0.0000 -0.4758 -0.8796
vn 0.0000 0.9988 -0.0485
vn 0.0000 0.5632 0.8263
vn 0.0000 -0.6528 0.7575
vn 0.0000 0.6499 -0.7600
vn 0.0000 -0.7293 -0.6842
vn 0.0000 -0.0059 -1.0000
vn 0.0000 -0.9913 0.1319
vn -0.9998 -0.0205 0.0001
vn 0.0000 0.0082 1.0000
vn 0.0000 1.0000 -0.0048
vn 0.0000 0.6297 0.7768
vn 0.9998 -0.0205 0.0001
vn 0.0000 0.6223 -0.7828
vn 0.0000 -1.0000 0.0000
vn -0.9995 0.0320 0.0000
vn 0.9995 0.0320 0.0000
vn 0.0000 -0.4758 0.8796
usemtl nginx_white
s off
f 13/27/9 14/28/9 16/29/9 15/30/9
f 15/30/10 16/29/10 20/31/10 19/32/10
f 19/32/11 20/31/11 18/33/11 17/34/11
f 17/34/12 18/33/12 14/35/12 13/36/12
f 15/30/13 19/32/13 44/37/13 42/38/13
f 18/33/11 20/31/11 24/39/11 23/40/11
f 24/39/14 22/41/14 21/42/14 23/40/14
f 16/29/9 14/28/9 21/43/9 22/44/9
f 14/35/15 18/33/15 23/40/15 21/45/15
f 20/31/16 16/29/16 25/46/16 26/47/16
f 25/46/9 27/48/9 31/49/9 29/50/9
f 24/39/11 20/31/11 26/47/11 28/51/11
f 16/29/9 22/44/9 27/48/9 25/46/9
f 22/41/17 24/39/17 28/51/17 27/52/17
f 30/53/18 29/50/18 31/49/18 32/54/18
f 32/54/19 31/49/19 35/55/19 36/56/19
f 28/51/11 26/47/11 30/53/11 32/54/11
f 26/47/20 25/46/20 29/50/20 30/53/20
f 35/55/21 33/57/21 37/58/21 39/59/21
f 28/51/11 32/54/11 36/56/11 34/60/11
f 27/52/22 28/51/22 34/60/22 33/61/22
f 31/49/9 27/48/9 33/57/9 35/55/9
f 37/62/23 38/63/23 40/64/23 39/65/23
f 33/61/24 34/60/24 38/63/24 37/62/24
f 34/60/25 36/56/25 40/64/25 38/63/25
f 36/56/26 35/55/26 39/59/26 40/64/26
f 42/66/27 44/37/27 43/67/27 41/68/27
f 13/27/28 15/30/28 42/38/28 41/69/28
f 19/32/29 17/34/29 43/67/29 44/37/29
f 17/34/30 13/36/30 41/70/30 43/67/30
