# Blender v3.0.0 OBJ File: 'nodejs.blend'
# www.blender.org
mtllib nodejs.mtl
o Cube
v -0.043345 0.583240 0.579518
v -0.043345 0.730123 0.579518
v -0.043345 0.583660 0.493285
v -0.043345 0.675941 0.493285
v 0.042888 0.583240 0.579518
v 0.042888 0.730123 0.579518
v 0.042888 0.583660 0.493285
v 0.042888 0.675941 0.493285
v -0.043345 0.801584 0.450289
v -0.043345 0.701843 0.450035
v 0.042888 0.801584 0.450289
v 0.042888 0.701843 0.450035
v -0.043345 0.539874 0.579518
v -0.043345 0.539874 0.563511
v 0.042888 0.539874 0.579518
v 0.042888 0.539874 0.563511
v -0.043345 0.583240 0.320802
v -0.043345 0.730123 0.320802
v -0.043345 0.583660 0.407035
v -0.043345 0.675941 0.407035
v 0.042888 0.583240 0.320802
v 0.042888 0.730123 0.320802
v 0.042888 0.583660 0.407035
v 0.042888 0.675941 0.407035
v -0.043345 0.801584 0.450031
v -0.043345 0.701843 0.450285
v 0.042888 0.801584 0.450031
v 0.042888 0.701843 0.450285
v -0.043345 0.539874 0.320802
v -0.043345 0.539874 0.336809
v 0.042888 0.539874 0.320802
v 0.042888 0.539874 0.336809
vt 0.375000 0.000000
vt 0.625000 0.000000
vt 0.625000 0.250000
vt 0.375000 0.250000
vt 0.625000 0.500000
vt 0.375000 0.500000
vt 0.625000 0.750000
vt 0.375000 0.750000
vt 0.625000 1.000000
vt 0.375000 1.000000
vt 0.375000 0.500000
vt 0.375000 0.250000
vt 0.625000 0.500000
vt 0.625000 0.750000
vt 0.875000 0.500000
vt 0.875000 0.750000
vt 0.625000 0.000000
vt 0.625000 0.250000
vt 0.625000 1.000000
vt 0.125000 0.500000
vt 0.375000 0.750000
vt 0.125000 0.750000
vt 0.375000 0.000000
vt 0.375000 1.000000
vt 0.375000 0.000000
vt 0.375000 0.250000
vt 0.625000 0.250000
vt 0.625000 0.000000
vt 0.375000 0.500000
vt 0.625000 0.500000
vt 0.375000 0.750000
vt 0.625000 0.750000
vt 0.375000 1.000000
vt 0.625000 1.000000
vt 0.375000 0.250000
vt 0.375000 0.500000
vt 0.625000 0.750000
vt 0.625000 0.500000
vt 0.875000 0.750000
vt 0.875000 0.500000
vt 0.625000 0.250000
vt 0.625000 0.000000
vt 0.625000 1.000000
vt 0.125000 0.500000
vt 0.125000 0.750000
vt 0.375000 0.750000
vt 0.375000 0.000000
vt 0.375000 1.000000
vn -1.0000 0.0000 0.0000
vn 0.0000 0.0000 -1.0000
vn 1.0000 0.0000 0.0000
vn 0.0000 0.0000 1.0000
vn 0.0000 -0.8486 -0.5291
vn 0.0000 0.0025 -1.0000
vn 0.0000 0.8751 0.4839
vn 0.0000 -0.8579 -0.5138
vn 0.0000 -1.0000 0.0000
vn 0.0000 -0.8486 0.5291
vn 0.0000 0.0025 1.0000
vn 0.0000 0.8751 -0.4839
vn 0.0000 -0.8579 0.5138
usemtl abu
s off
f 1/1/1 2/2/1 4/3/1 3/4/1
f 3/4/2 4/3/2 8/5/2 7/6/2
f 7/6/3 8/5/3 6/7/3 5/8/3
f 5/8/4 6/7/4 2/9/4 1/10/4
f 3/4/5 7/6/5 16/11/5 14/12/5
f 6/7/3 8/5/3 12/13/3 11/14/3
f 12/13/6 10/15/6 9/16/6 11/14/6
f 4/3/1 2/2/1 9/17/1 10/18/1
f 2/9/7 6/7/7 11/14/7 9/19/7
f 8/5/8 4/3/8 10/18/8 12/13/8
f 14/20/9 16/11/9 15/21/9 13/22/9
f 1/1/1 3/4/1 14/12/1 13/23/1
f 7/6/3 5/8/3 15/21/3 16/11/3
f 5/8/4 1/10/4 13/24/4 15/21/4
f 17/25/1 19/26/1 20/27/1 18/28/1
f 19/26/4 23/29/4 24/30/4 20/27/4
f 23/29/3 21/31/3 22/32/3 24/30/3
f 21/31/2 17/33/2 18/34/2 22/32/2
f 19/26/10 30/35/10 32/36/10 23/29/10
f 22/32/3 27/37/3 28/38/3 24/30/3
f 28/38/11 27/37/11 25/39/11 26/40/11
f 20/27/1 26/41/1 25/42/1 18/28/1
f 18/34/12 25/43/12 27/37/12 22/32/12
f 24/30/13 28/38/13 26/41/13 20/27/13
f 30/44/9 29/45/9 31/46/9 32/36/9
f 17/25/1 29/47/1 30/35/1 19/26/1
f 23/29/3 32/36/3 31/46/3 21/31/3
f 21/31/2 31/46/2 29/48/2 17/33/2
o Cylinder_Cylinder.001
v -0.044137 0.726848 0.010179
v 0.040954 0.726848 0.010179
v -0.044137 0.579445 0.010179
v 0.040954 0.579445 0.010179
v -0.044137 0.505743 0.137834
v 0.040954 0.505743 0.137834
v -0.044137 0.579445 0.265489
v 0.040954 0.579445 0.265489
v -0.044137 0.726848 0.265489
v 0.040954 0.726848 0.265489
v -0.044137 0.800550 0.137834
v 0.040954 0.800550 0.137834
vt 1.000000 0.500000
vt 1.000000 1.000000
vt 0.833333 1.000000
vt 0.833333 0.500000
vt 0.666667 1.000000
vt 0.666667 0.500000
vt 0.500000 1.000000
vt 0.500000 0.500000
vt 0.333333 1.000000
vt 0.333333 0.500000
vt 0.457846 0.370000
vt 0.250000 0.490000
vt 0.042154 0.370000
vt 0.042154 0.130000
vt 0.250000 0.010000
vt 0.457846 0.130000
vt 0.166667 1.000000
vt 0.166667 0.500000
vt -0.000000 1.000000
vt -0.000000 0.500000
vt 0.750000 0.490000
vt 0.957846 0.370000
vt 0.957846 0.130000
vt 0.750000 0.010000
vt 0.542154 0.130000
vt 0.542154 0.370000
vn 0.0000 -0.0000 -1.0000
vn 0.0000 -0.8660 -0.5000
vn 0.0000 -0.8660 0.5000
vn 0.0000 0.0000 1.0000
vn 1.0000 0.0000 0.0000
vn -0.0000 0.8660 0.5000
vn 0.0000 0.8660 -0.5000
vn -1.0000 -0.0000 -0.0000
usemtl green
s off
f 33/49/14 34/50/14 36/51/14 35/52/14
f 35/52/15 36/51/15 38/53/15 37/54/15
f 37/54/16 38/53/16 40/55/16 39/56/16
f 39/56/17 40/55/17 42/57/17 41/58/17
f 36/59/18 34/60/18 44/61/18 42/62/18 40/63/18 38/64/18
f 41/58/19 42/57/19 44/65/19 43/66/19
f 43/66/20 44/65/20 34/67/20 33/68/20
f 33/69/21 35/70/21 37/71/21 39/72/21 41/73/21 43/74/21
o Cylinder.002_Cylinder.004
v -0.044137 0.724985 -0.304546
v 0.040954 0.724985 -0.304546
v -0.044137 0.577581 -0.304546
v 0.040954 0.577581 -0.304546
v -0.044137 0.503880 -0.176891
v 0.040954 0.503880 -0.176891
v -0.044137 0.577581 -0.049236
v 0.040954 0.577581 -0.049236
v -0.044137 0.724985 -0.049236
v 0.040954 0.724985 -0.049236
v -0.044137 0.798686 -0.176891
v 0.040954 0.798686 -0.176891
v 0.040954 0.674950 -0.135898
v 0.040954 0.698617 -0.176891
v 0.040954 0.603949 -0.176891
v 0.040954 0.627616 -0.217884
v 0.040954 0.627616 -0.135898
v 0.040954 0.674950 -0.217884
v -0.044137 0.674950 -0.135899
v -0.044137 0.698617 -0.176891
v -0.044137 0.603949 -0.176891
v -0.044137 0.627616 -0.217884
v -0.044137 0.674950 -0.217884
v -0.044137 0.627616 -0.135898
v -0.044137 0.774813 -0.218240
v 0.040954 0.774813 -0.218240
v -0.044137 0.922741 -0.304546
v 0.040954 0.922741 -0.304546
v -0.044137 0.973550 -0.218240
v 0.040954 0.973550 -0.218240
vt 1.000000 0.500000
vt 1.000000 1.000000
vt 0.833333 1.000000
vt 0.833333 0.500000
vt 0.666667 1.000000
vt 0.666667 0.500000
vt 0.500000 1.000000
vt 0.500000 0.500000
vt 0.333333 1.000000
vt 0.333333 0.500000
vt 0.183257 0.211466
vt 0.042154 0.130000
vt 0.250000 0.010000
vt 0.250000 0.172931
vt 0.316743 0.211466
vt 0.457846 0.130000
vt 0.457846 0.370000
vt 0.316743 0.288534
vt 0.166667 1.000000
vt 0.166667 0.500000
vt 0.112681 1.000000
vt 0.112681 0.500000
vt 0.683257 0.288534
vt 0.542154 0.370000
vt 0.609478 0.408870
vt 0.750000 0.490000
vt 0.750000 0.327069
vt 0.750000 0.172931
vt 0.750000 0.010000
vt 0.542154 0.130000
vt 0.683257 0.211466
vt 0.833333 0.622852
vt 0.833333 0.877148
vt 1.000000 0.877148
vt 1.000000 0.622852
vt 0.666667 0.877148
vt 0.666667 0.622852
vt 0.500000 0.877148
vt 0.500000 0.622852
vt 0.333333 0.877148
vt 0.333333 0.622852
vt 0.166667 0.622852
vt 0.166667 0.877148
vt -0.000000 0.622852
vt -0.000000 0.877148
vt 0.183257 0.288534
vt 0.042154 0.370000
vt 0.250000 0.327069
vt 0.250000 0.490000
vt 0.109478 0.408870
vt 0.816743 0.211466
vt 0.957846 0.130000
vt 0.816743 0.288534
vt 0.957846 0.370000
vt 0.112681 0.500000
vt 0.112681 1.000000
vt -0.000000 1.000000
vt -0.000000 0.500000
vt 0.250000 0.490000
vt 0.109478 0.408870
vt 0.609478 0.408870
vt 0.750000 0.490000
vt 1.000000 0.500000
vt 1.000000 1.000000
vn 0.0000 0.0000 -1.0000
vn 0.0000 -0.8660 -0.5000
vn 0.0000 -0.8660 0.5000
vn 0.0000 0.0000 1.0000
vn 1.0000 0.0000 0.0000
vn 0.0000 0.8660 0.5000
vn -0.0000 0.8660 -0.5000
vn -1.0000 -0.0000 -0.0000
vn -0.0000 0.8618 -0.5073
usemtl abu
s off
f 45/75/22 46/76/22 48/77/22 47/78/22
f 47/78/23 48/77/23 50/79/23 49/80/23
f 49/80/24 50/79/24 52/81/24 51/82/24
f 51/82/25 52/81/25 54/83/25 53/84/25
f 57/85/26 54/86/26 52/87/26 61/88/26
f 59/89/26 50/90/26 48/91/26 60/92/26
f 53/84/27 54/83/27 56/93/27 55/94/27
f 55/94/28 56/93/28 70/95/28 69/96/28
f 64/97/29 55/98/29 69/99/29 45/100/29 67/101/29
f 68/102/29 51/103/29 53/104/29 63/105/29
f 66/106/25 60/107/25 62/108/25 67/109/25
f 59/110/27 60/107/27 66/106/27 65/111/27
f 61/112/28 59/110/28 65/111/28 68/113/28
f 57/114/22 61/112/22 68/113/22 63/115/22
f 64/116/23 58/117/23 57/114/23 63/115/23
f 67/118/24 62/119/24 58/117/24 64/116/24
f 58/120/26 56/121/26 54/86/26 57/85/26
f 62/122/26 46/123/26 70/124/26 56/121/26 58/120/26
f 60/92/26 48/91/26 46/123/26 62/122/26
f 61/88/26 52/87/26 50/90/26 59/89/26
f 63/105/29 53/104/29 55/98/29 64/97/29
f 65/125/29 49/126/29 51/103/29 68/102/29
f 66/127/29 47/128/29 49/126/29 65/125/29
f 67/101/29 45/100/29 47/128/29 66/127/29
f 73/129/30 74/130/30 72/131/30 71/132/30
f 70/124/26 46/123/26 72/133/26 74/134/26
f 69/96/25 70/95/25 74/130/25 73/129/25
f 45/100/29 69/99/29 73/135/29 71/136/29
f 46/76/22 45/75/22 71/137/22 72/138/22
o Cylinder.006
v -0.044137 0.726848 -0.620534
v 0.040954 0.726848 -0.620534
v -0.044137 0.678847 -0.620534
v 0.040954 0.678847 -0.620534
v -0.044137 0.505743 -0.492879
v 0.040954 0.505743 -0.492879
v -0.044137 0.579445 -0.365224
v 0.040954 0.579445 -0.365224
v -0.044137 0.726848 -0.365224
v 0.040954 0.726848 -0.365224
v -0.044137 0.800550 -0.492879
v 0.040954 0.800550 -0.492879
v 0.040954 0.676814 -0.448589
v 0.040954 0.700481 -0.489993
v 0.040954 0.552925 -0.578500
v 0.040954 0.628997 -0.533871
v 0.040954 0.629480 -0.448589
v 0.040954 0.676814 -0.533871
v -0.044137 0.676814 -0.448589
v -0.044137 0.700481 -0.489993
v -0.044137 0.552925 -0.578500
v -0.044137 0.628997 -0.533871
v -0.044137 0.676814 -0.533871
v -0.044137 0.629480 -0.448589
v -0.044137 0.678847 -0.620534
v 0.040954 0.678847 -0.620534
v 0.040954 0.628997 -0.533871
v -0.044137 0.628997 -0.533871
v -0.044137 0.678847 -0.620534
v 0.040954 0.678847 -0.620534
v 0.040954 0.628997 -0.533871
v -0.044137 0.628997 -0.533871
vt 1.000000 0.500000
vt 1.000000 1.000000
vt 0.833333 1.000000
vt 0.833333 0.500000
vt 0.000000 0.000000
vt 0.000000 0.000000
vt 0.000000 0.000000
vt 0.000000 0.000000
vt 0.666667 0.500000
vt 0.666667 1.000000
vt 0.500000 1.000000
vt 0.500000 0.500000
vt 0.333333 1.000000
vt 0.333333 0.500000
vt 0.183257 0.211466
vt 0.042154 0.130000
vt 0.250000 0.010000
vt 0.250000 0.172931
vt 0.166667 1.000000
vt 0.166667 0.500000
vt -0.000000 1.000000
vt -0.000000 0.500000
vt 0.683257 0.288534
vt 0.542154 0.370000
vt 0.750000 0.490000
vt 0.750000 0.327069
vt 0.750000 0.172931
vt 0.750000 0.010000
vt 0.542154 0.130000
vt 0.683257 0.211466
vt 0.833333 0.622852
vt 0.833333 0.877148
vt 1.000000 0.877148
vt 1.000000 0.622852
vt 0.500000 0.877148
vt 0.666667 0.877148
vt 0.666667 0.622852
vt 0.500000 0.622852
vt 0.333333 0.877148
vt 0.333333 0.622852
vt 0.166667 0.622852
vt 0.166667 0.877148
vt -0.000000 0.622852
vt -0.000000 0.877148
vt 0.183257 0.288534
vt 0.042154 0.370000
vt 0.250000 0.327069
vt 0.250000 0.490000
vt 0.316743 0.288534
vt 0.457846 0.370000
vt 0.457846 0.130000
vt 0.316743 0.211466
vt 0.816743 0.211466
vt 0.957846 0.130000
vt 0.000000 0.000000
vt 0.000000 0.000000
vt 0.957846 0.370000
vt 0.816743 0.288534
vt 0.000000 0.000000
vt 0.000000 0.000000
vn 0.0000 0.0000 -1.0000
vn 0.0000 0.8668 0.4986
vn 0.0000 -0.8660 0.5000
vn 0.0000 0.0000 1.0000
vn 1.0000 0.0000 0.0000
vn 0.0000 0.8660 0.5000
vn 0.0000 0.8660 -0.5000
vn -1.0000 -0.0000 -0.0000
vn 0.0000 0.8615 -0.5077
vn 0.0000 -0.8682 -0.4963
vn 0.0000 -0.8801 0.4747
vn 0.0000 -0.8758 -0.4826
usemtl abu
s off
f 75/139/31 76/140/31 78/141/31 77/142/31
f 103/143/32 106/144/32 105/145/32 104/146/32
f 79/147/33 80/148/33 82/149/33 81/150/33
f 81/150/34 82/149/34 84/151/34 83/152/34
f 87/153/35 84/154/35 82/155/35 91/156/35
f 83/152/36 84/151/36 86/157/36 85/158/36
f 85/158/37 86/157/37 76/159/37 75/160/37
f 94/161/38 85/162/38 75/163/38 97/164/38
f 98/165/38 81/166/38 83/167/38 93/168/38
f 96/169/34 90/170/34 92/171/34 97/172/34
f 91/173/39 89/174/39 95/175/39 98/176/39
f 87/177/31 91/173/31 98/176/31 93/178/31
f 94/179/40 88/180/40 87/177/40 93/178/40
f 97/181/41 92/182/41 88/180/41 94/179/41
f 88/183/35 86/184/35 84/154/35 87/153/35
f 92/185/35 76/186/35 86/184/35 88/183/35
f 90/187/35 78/188/35 76/186/35 92/185/35
f 91/156/35 82/155/35 80/189/35 89/190/35
f 93/168/38 83/167/38 85/162/38 94/161/38
f 95/191/38 79/192/38 81/166/38 98/165/38
f 101/193/34 100/194/34 104/146/34 105/145/34
f 97/164/38 75/163/38 77/195/38 96/196/38
f 80/148/42 79/147/42 95/191/42 89/174/42
f 100/194/34 99/197/34 103/143/34 104/146/34
f 99/197/34 102/198/34 106/144/34 103/143/34
f 102/198/34 101/193/34 105/145/34 106/144/34
o Cylinder.007_Cylinder.008
v -0.044137 0.668715 -0.518145
v 0.040954 0.668715 -0.518145
v -0.044137 0.637578 -0.518145
v 0.040954 0.637578 -0.518145
v -0.044137 0.622009 -0.491179
v 0.040954 0.622009 -0.491179
v -0.044137 0.637578 -0.464213
v 0.040954 0.637578 -0.464213
v -0.044137 0.668715 -0.464213
v 0.040954 0.668715 -0.464213
v -0.044137 0.684284 -0.491179
v 0.040954 0.684284 -0.491179
vt 1.000000 0.500000
vt 1.000000 1.000000
vt 0.833333 1.000000
vt 0.833333 0.500000
vt 0.666667 1.000000
vt 0.666667 0.500000
vt 0.500000 1.000000
vt 0.500000 0.500000
vt 0.333333 1.000000
vt 0.333333 0.500000
vt 0.457846 0.370000
vt 0.250000 0.490000
vt 0.042154 0.370000
vt 0.042154 0.130000
vt 0.250000 0.010000
vt 0.457846 0.130000
vt 0.166667 1.000000
vt 0.166667 0.500000
vt -0.000000 1.000000
vt -0.000000 0.500000
vt 0.750000 0.490000
vt 0.957846 0.370000
vt 0.957846 0.130000
vt 0.750000 0.010000
vt 0.542154 0.130000
vt 0.542154 0.370000
vn 0.0000 0.0000 -1.0000
vn 0.0000 -0.8660 -0.5000
vn 0.0000 -0.8660 0.5000
vn 0.0000 0.0000 1.0000
vn 1.0000 0.0000 0.0000
vn 0.0000 0.8660 0.5000
vn 0.0000 0.8660 -0.5000
vn -1.0000 0.0000 -0.0000
usemtl green
s off
f 107/199/43 108/200/43 110/201/43 109/202/43
f 109/202/44 110/201/44 112/203/44 111/204/44
f 111/204/45 112/203/45 114/205/45 113/206/45
f 113/206/46 114/205/46 116/207/46 115/208/46
f 110/209/47 108/210/47 118/211/47 116/212/47 114/213/47 112/214/47
f 115/208/48 116/207/48 118/215/48 117/216/48
f 117/216/49 118/215/49 108/217/49 107/218/49
f 107/219/50 109/220/50 111/221/50 113/222/50 115/223/50 117/224/50
